{
	"patcher" : 	{
		"fileversion" : 1,
		"rect" : [ 0.0, 44.0, 836.0, 667.0 ],
		"bglocked" : 0,
		"defrect" : [ 0.0, 44.0, 836.0, 667.0 ],
		"openrect" : [ 0.0, 0.0, 0.0, 0.0 ],
		"openinpresentation" : 0,
		"default_fontsize" : 11.0,
		"default_fontface" : 0,
		"default_fontname" : "Syntax LT Std Roman",
		"gridonopen" : 0,
		"gridsize" : [ 10.0, 10.0 ],
		"gridsnaponopen" : 0,
		"toolbarvisible" : 1,
		"boxanimatetime" : 200,
		"imprint" : 0,
		"boxes" : [ 			{
				"box" : 				{
					"fontname" : "Geneva",
					"fontsize" : 18.0,
					"id" : "obj-19",
					"maxclass" : "newobj",
					"numinlets" : 1,
					"numoutlets" : 0,
					"patching_rect" : [ 48.0, 283.0, 50.0, 31.0 ],
					"text" : "print"
				}

			}
, 			{
				"box" : 				{
					"fontname" : "Geneva",
					"fontsize" : 18.0,
					"id" : "obj-20",
					"maxclass" : "newobj",
					"numinlets" : 1,
					"numoutlets" : 2,
					"outlettype" : [ "bang", "int" ],
					"patching_rect" : [ 89.0, 193.0, 46.0, 31.0 ],
					"text" : "t b i"
				}

			}
, 			{
				"box" : 				{
					"fontname" : "Geneva",
					"fontsize" : 18.0,
					"id" : "obj-21",
					"maxclass" : "newobj",
					"numinlets" : 2,
					"numoutlets" : 1,
					"outlettype" : [ "" ],
					"patching_rect" : [ 48.0, 248.0, 87.0, 31.0 ],
					"text" : "pack"
				}

			}
, 			{
				"box" : 				{
					"fontname" : "Geneva",
					"fontsize" : 18.0,
					"id" : "obj-22",
					"maxclass" : "message",
					"numinlets" : 2,
					"numoutlets" : 1,
					"outlettype" : [ "" ],
					"patching_rect" : [ 89.0, 146.0, 58.0, 29.0 ],
					"text" : "1000"
				}

			}
, 			{
				"box" : 				{
					"fontname" : "Geneva",
					"fontsize" : 18.0,
					"id" : "obj-23",
					"maxclass" : "message",
					"numinlets" : 2,
					"numoutlets" : 1,
					"outlettype" : [ "" ],
					"patching_rect" : [ 48.0, 146.0, 32.5, 29.0 ],
					"text" : "7"
				}

			}
, 			{
				"box" : 				{
					"fontname" : "Geneva",
					"fontsize" : 13.0,
					"id" : "obj-1",
					"maxclass" : "comment",
					"numinlets" : 1,
					"numoutlets" : 0,
					"patching_rect" : [ 445.0, 473.0, 276.0, 24.0 ],
					"text" : "like pack, pak takes all sorts of data types"
				}

			}
, 			{
				"box" : 				{
					"fontname" : "Geneva",
					"fontsize" : 13.0,
					"id" : "obj-2",
					"maxclass" : "comment",
					"numinlets" : 1,
					"numoutlets" : 0,
					"patching_rect" : [ 373.0, 102.0, 289.0, 24.0 ],
					"text" : "no matter which inlet the message comes in"
				}

			}
, 			{
				"box" : 				{
					"fontname" : "Geneva",
					"fontsize" : 13.0,
					"id" : "obj-3",
					"maxclass" : "comment",
					"numinlets" : 1,
					"numoutlets" : 0,
					"patching_rect" : [ 373.0, 87.0, 313.0, 24.0 ],
					"text" : "so they came up with \"pak\" which outputs a list"
				}

			}
, 			{
				"box" : 				{
					"fontname" : "Geneva",
					"fontsize" : 13.0,
					"id" : "obj-4",
					"maxclass" : "comment",
					"numinlets" : 1,
					"numoutlets" : 0,
					"patching_rect" : [ 47.0, 59.0, 64.0, 24.0 ],
					"text" : "shortcut"
				}

			}
, 			{
				"box" : 				{
					"fontname" : "Geneva",
					"fontsize" : 13.0,
					"id" : "obj-5",
					"maxclass" : "comment",
					"numinlets" : 1,
					"numoutlets" : 0,
					"patching_rect" : [ 149.0, 88.0, 19.0, 24.0 ],
					"text" : "="
				}

			}
, 			{
				"box" : 				{
					"fontname" : "Geneva",
					"fontsize" : 18.0,
					"id" : "obj-6",
					"maxclass" : "newobj",
					"numinlets" : 1,
					"numoutlets" : 2,
					"outlettype" : [ "bang", "int" ],
					"patching_rect" : [ 46.0, 84.0, 96.0, 31.0 ],
					"text" : "trigger b i"
				}

			}
, 			{
				"box" : 				{
					"fontname" : "Geneva",
					"fontsize" : 18.0,
					"id" : "obj-7",
					"maxclass" : "newobj",
					"numinlets" : 1,
					"numoutlets" : 2,
					"outlettype" : [ "bang", "int" ],
					"patching_rect" : [ 173.0, 84.0, 45.0, 31.0 ],
					"text" : "t b i"
				}

			}
, 			{
				"box" : 				{
					"fontname" : "Geneva",
					"fontsize" : 13.0,
					"id" : "obj-8",
					"maxclass" : "comment",
					"numinlets" : 1,
					"numoutlets" : 0,
					"patching_rect" : [ 373.0, 72.0, 344.0, 24.0 ],
					"text" : "some nice soul got sick of putting \"t b i\" everywhere"
				}

			}
, 			{
				"box" : 				{
					"fontname" : "Geneva",
					"fontsize" : 18.0,
					"id" : "obj-9",
					"maxclass" : "message",
					"numinlets" : 2,
					"numoutlets" : 1,
					"outlettype" : [ "" ],
					"patching_rect" : [ 511.0, 335.0, 51.0, 29.0 ],
					"text" : "hello"
				}

			}
, 			{
				"box" : 				{
					"bgcolor" : [ 0.866667, 0.866667, 0.866667, 1.0 ],
					"fontname" : "Geneva",
					"fontsize" : 18.0,
					"htextcolor" : [ 0.870588, 0.870588, 0.870588, 1.0 ],
					"id" : "obj-10",
					"maxclass" : "flonum",
					"numinlets" : 1,
					"numoutlets" : 2,
					"outlettype" : [ "float", "bang" ],
					"patching_rect" : [ 445.0, 335.0, 62.0, 31.0 ],
					"triscale" : 0.9
				}

			}
, 			{
				"box" : 				{
					"bgcolor" : [ 0.866667, 0.866667, 0.866667, 1.0 ],
					"fontname" : "Geneva",
					"fontsize" : 18.0,
					"htextcolor" : [ 0.870588, 0.870588, 0.870588, 1.0 ],
					"id" : "obj-11",
					"maxclass" : "number",
					"numinlets" : 1,
					"numoutlets" : 2,
					"outlettype" : [ "int", "bang" ],
					"patching_rect" : [ 379.0, 335.0, 63.0, 31.0 ],
					"triscale" : 0.9
				}

			}
, 			{
				"box" : 				{
					"fontname" : "Geneva",
					"fontsize" : 18.0,
					"id" : "obj-12",
					"maxclass" : "newobj",
					"numinlets" : 1,
					"numoutlets" : 0,
					"patching_rect" : [ 379.0, 471.0, 50.0, 31.0 ],
					"text" : "print"
				}

			}
, 			{
				"box" : 				{
					"fontname" : "Geneva",
					"fontsize" : 18.0,
					"id" : "obj-13",
					"maxclass" : "newobj",
					"numinlets" : 4,
					"numoutlets" : 1,
					"outlettype" : [ "" ],
					"patching_rect" : [ 379.0, 436.0, 217.0, 31.0 ],
					"text" : "pak i f s i"
				}

			}
, 			{
				"box" : 				{
					"fontname" : "Geneva",
					"fontsize" : 18.0,
					"id" : "obj-14",
					"maxclass" : "newobj",
					"numinlets" : 1,
					"numoutlets" : 0,
					"patching_rect" : [ 373.0, 218.0, 50.0, 31.0 ],
					"text" : "print"
				}

			}
, 			{
				"box" : 				{
					"fontname" : "Geneva",
					"fontsize" : 18.0,
					"id" : "obj-15",
					"maxclass" : "newobj",
					"numinlets" : 2,
					"numoutlets" : 1,
					"outlettype" : [ "" ],
					"patching_rect" : [ 373.0, 183.0, 55.0, 31.0 ],
					"text" : "pak"
				}

			}
, 			{
				"box" : 				{
					"fontname" : "Geneva",
					"fontsize" : 18.0,
					"id" : "obj-16",
					"maxclass" : "message",
					"numinlets" : 2,
					"numoutlets" : 1,
					"outlettype" : [ "" ],
					"patching_rect" : [ 409.0, 137.0, 46.0, 29.0 ],
					"text" : "300"
				}

			}
, 			{
				"box" : 				{
					"fontname" : "Geneva",
					"fontsize" : 18.0,
					"id" : "obj-17",
					"maxclass" : "message",
					"numinlets" : 2,
					"numoutlets" : 1,
					"outlettype" : [ "" ],
					"patching_rect" : [ 373.0, 137.0, 32.5, 29.0 ],
					"text" : "7"
				}

			}
, 			{
				"box" : 				{
					"bgcolor" : [ 0.866667, 0.866667, 0.866667, 1.0 ],
					"fontname" : "Geneva",
					"fontsize" : 18.0,
					"htextcolor" : [ 0.870588, 0.870588, 0.870588, 1.0 ],
					"id" : "obj-18",
					"maxclass" : "number",
					"numinlets" : 1,
					"numoutlets" : 2,
					"outlettype" : [ "int", "bang" ],
					"patching_rect" : [ 577.0, 335.0, 63.0, 31.0 ],
					"triscale" : 0.9
				}

			}
 ],
		"lines" : [ 			{
				"patchline" : 				{
					"destination" : [ "obj-21", 0 ],
					"hidden" : 0,
					"midpoints" : [  ],
					"source" : [ "obj-20", 0 ]
				}

			}
, 			{
				"patchline" : 				{
					"destination" : [ "obj-20", 0 ],
					"hidden" : 0,
					"midpoints" : [  ],
					"source" : [ "obj-22", 0 ]
				}

			}
, 			{
				"patchline" : 				{
					"destination" : [ "obj-21", 1 ],
					"hidden" : 0,
					"midpoints" : [  ],
					"source" : [ "obj-20", 1 ]
				}

			}
, 			{
				"patchline" : 				{
					"destination" : [ "obj-19", 0 ],
					"hidden" : 0,
					"midpoints" : [  ],
					"source" : [ "obj-21", 0 ]
				}

			}
, 			{
				"patchline" : 				{
					"destination" : [ "obj-21", 0 ],
					"hidden" : 0,
					"midpoints" : [  ],
					"source" : [ "obj-23", 0 ]
				}

			}
, 			{
				"patchline" : 				{
					"destination" : [ "obj-13", 3 ],
					"hidden" : 0,
					"midpoints" : [  ],
					"source" : [ "obj-18", 0 ]
				}

			}
, 			{
				"patchline" : 				{
					"destination" : [ "obj-13", 2 ],
					"hidden" : 0,
					"midpoints" : [  ],
					"source" : [ "obj-9", 0 ]
				}

			}
, 			{
				"patchline" : 				{
					"destination" : [ "obj-13", 1 ],
					"hidden" : 0,
					"midpoints" : [  ],
					"source" : [ "obj-10", 0 ]
				}

			}
, 			{
				"patchline" : 				{
					"destination" : [ "obj-15", 1 ],
					"hidden" : 0,
					"midpoints" : [  ],
					"source" : [ "obj-16", 0 ]
				}

			}
, 			{
				"patchline" : 				{
					"destination" : [ "obj-12", 0 ],
					"hidden" : 0,
					"midpoints" : [  ],
					"source" : [ "obj-13", 0 ]
				}

			}
, 			{
				"patchline" : 				{
					"destination" : [ "obj-13", 0 ],
					"hidden" : 0,
					"midpoints" : [  ],
					"source" : [ "obj-11", 0 ]
				}

			}
, 			{
				"patchline" : 				{
					"destination" : [ "obj-14", 0 ],
					"hidden" : 0,
					"midpoints" : [  ],
					"source" : [ "obj-15", 0 ]
				}

			}
, 			{
				"patchline" : 				{
					"destination" : [ "obj-15", 0 ],
					"hidden" : 0,
					"midpoints" : [  ],
					"source" : [ "obj-17", 0 ]
				}

			}
 ]
	}

}
