{
	"patcher" : 	{
		"fileversion" : 1,
		"rect" : [ 10.0, 59.0, 818.0, 629.0 ],
		"bglocked" : 0,
		"defrect" : [ 10.0, 59.0, 818.0, 629.0 ],
		"openrect" : [ 0.0, 0.0, 0.0, 0.0 ],
		"openinpresentation" : 0,
		"default_fontsize" : 11.0,
		"default_fontface" : 0,
		"default_fontname" : "Syntax LT Std Roman",
		"gridonopen" : 0,
		"gridsize" : [ 10.0, 10.0 ],
		"gridsnaponopen" : 0,
		"toolbarvisible" : 1,
		"boxanimatetime" : 200,
		"imprint" : 0,
		"boxes" : [ 			{
				"box" : 				{
					"fontname" : "Geneva",
					"fontsize" : 13.0,
					"id" : "obj-15",
					"maxclass" : "comment",
					"numinlets" : 1,
					"numoutlets" : 0,
					"patching_rect" : [ 357.0, 207.0, 350.0, 24.0 ],
					"text" : "when loaded bang info & start playing at native speed"
				}

			}
, 			{
				"box" : 				{
					"fontname" : "Geneva",
					"fontsize" : 13.0,
					"id" : "obj-9",
					"maxclass" : "comment",
					"numinlets" : 1,
					"numoutlets" : 0,
					"patching_rect" : [ 375.0, 114.0, 335.0, 24.0 ],
					"text" : "buffer is resized dynamically based on size of file"
				}

			}
, 			{
				"box" : 				{
					"autopopulate" : 1,
					"fontname" : "Syntax LT Std Roman",
					"fontsize" : 18.0,
					"id" : "obj-14",
					"items" : [ "aaronCarl_down1-break.aiff", ",", "aaronCarl_down2-break+bass.aiff", ",", "barkPsychosis_01-gtr.aiff", ",", "bauhaus_belasDead1-dr.aiff", ",", "bauhaus_shesInParties_bass.aiff", ",", "bauhaus_shesInPartiesSwell.aiff", ",", "bauhaus_spyIntheCab1-gtr.aiff", ",", "bauhaus_spyIntheCab2-drmMc.aiff", ",", "bauhaus_wasp-quirkySynth.aiff", ",", "blackSabbath_ironMan-d+gtr.aiff", ",", "bsidePlayers04-dr+voxSyll.aiff", ",", "bsidePlayers_01-dr-minimal.aiff", ",", "bsidePlayers_02-afroCubnDr.aiff", ",", "bSidePlayers_05-dr+BrEEEEE.aiff", ",", "cabVoltaire_24-24-claps.aiff", ",", "cabVoltaire_24-24-full.aiff", ",", "cabVoltaire_crackdown1-d+s.aiff", ",", "cabVoltaire_jstFasc-kicks.aiff", ",", "cabVoltaire_jstFasc01-d+sy.aiff", ",", "cabVoltaire_jstFasc02-d+sy.aiff", ",", "cabVoltaire_sensoria1-syn.aiff", ",", "cabVoltaire_sensoria2-mood.aiff", ",", "ceelo_microhard-break.aiff", ",", "certainRatio_blownAway-dr.aiff", ",", "certainRatio_flight-full.aiff", ",", "certainRatio_gum-d+b+vox.aiff", ",", "certainRatio_knfSltsWtr-md.aiff", ",", "certainRatio_saturn.aiff", ",", "certainRatio_theFox1-dr.aiff", ",", "certainRatio_theFox2-dr.aiff", ",", "certainRatio_theFox3-d+b.aiff", ",", "dAngelo_chickenGrease1-d+v.aiff", ",", "dAngelo_feelLikeMknLv1-d.aiff", ",", "dAngelo_feelLikeMknLv3-d+b.aif", ",", "eddieFowlkes_go-drums.aiff", ",", "ericTravis_technoDriver-br.aiff", ",", "iggy_massProduction-syNote.aiff", ",", "iggy_massProduction2-d+sy.aiff", ",", "iggy_nightclubbing-dr.aiff", ",", "joyDiv_asYouSaid-d.aiff", ",", "joyDiv_atmosphere-sy+b.aiff", ",", "joyDiv_atmosphere2-tripletD.aif", ",", "joyDiv_disorder-dr.aiff", ",", "joyDiv_exercise1-d+b+fdbk.aiff", ",", "joyDiv_glass-d+b.aiff", ",", "joyDiv_heartAndSoul-b.aiff", ",", "joyDiv_heartAndSoul-d+b.aiff", ",", "joyDiv_iceAge-dr1.aiff", ",", "joyDiv_iceAge-dr2.aiff", ",", "joyDiv_iceAge-drumStretchd.aiff", ",", "joyDiv_interzoneLive-dr.aiff", ",", "joyDiv_leadersOfMen-d.aiff", ",", "joyDiv_onlyMistake-d.aiff", ",", "joyDiv_shesLostCtl-d+b.aiff", ",", "joyDiv_shesLostCtl-dr.aiff", ",", "joyDiv_shesLostCtl12-d+b.aiff", ",", "joyDiv_shesLostCtl12-d.aiff", ",", "joyDiv_theseDaysLive1-dr.aiff", ",", "joyDiv_transmission-b.aiff", ",", "joyDiv_transmission-bStrtch.aif", ",", "joyDiv_transmission-d+b.aiff", ",", "mikolai01-straightHouse.aiff", ",", "mikolai02-discoeyHouse.aiff", ",", "mikolai03-mnmlTechBassWfilt.aif", ",", "mikolai04-tribalHouse.aiff", ",", "mikolai05-minimalTribal.aiff", ",", "mikolai06-thatZipperTrack1.aiff", ",", "mikolai07-thatZipperTrack2.aiff", ",", "mikolai08-thatZipperTrack3.aiff", ",", "mikolai09-theRealJazz1.aiff", ",", "mikolai10-realJazz2-br8kdwn.aif", ",", "mikolai11-iHaveAdream.aiff", ",", "mikolai12-straightHouse2.aiff", ",", "monsterMovie_ooby-drums.aiff", ",", "monsterMovie_ooby-guitar.aiff", ",", "nangi1-minimalLoTechHouse.aiff", ",", "nangi2-discoeyHouse.aiff", ",", "nangi3-tribalFilterHouse.aiff", ",", "nine_lazy_nine_swell.aiff", ",", "nwa-bringthatbeatback1-vox.aiff", ",", "nwa-bringthatbeatback2-vox.aiff", ",", "nwa_dopeman-break.aiff", ",", "nwa_gngstax2-notAboutSalary.aif", ",", "nwa_ifItAintRough-break.aiff", ",", "nwa_something2dance2-break.aiff", ",", "nwa_something2dance2-break2.aif", ",", "nwa_something2dance2-d+vox.aiff", ",", "nwa_something2dance2-scrtch.aif", ",", "nwa_something2dance2-snares.aif", ",", "nwa_straightOuttaCpt-break.aiff", ",", "pixies_makeBelieve-bassline.aif", ",", "pixies_waveOfMutil-drums.aiff", ",", "pMurphy_fallWithU-quirkyDr.aiff", ",", "pMurphy_subway-synChds+clk.aiff", ",", "prince_whenLightsGoDown-dr.aiff", ",", "ramseyLewis_tamboura-dr1.aiff", ",", "ramseyLewis_tambura-dr2.aiff", ",", "shriekback_accretions-dr+sy.aif", ",", "shriekback_despDensWd-md.aiff", ",", "shriekback_handOnMyHeart-dr.aif", ",", "shriekback_linedUp-dr+sy.aiff", ",", "shriekback_midnightMaps_dr.aiff", ",", "slowdive_hereShe1-8bar-gtr.aiff", ",", "slowdive_hereShe2-16bar-gt.aiff", ",", "tearsForFears_madWorld-d.aiff", ",", "tomWaits_fawn-soloViolin.aiff", ",", "tomWaits_godsAwayOnBiz-inst.aif", ",", "tomWaits_godsAwayOnBiz-vox.aiff", ",", "tonesOnTail_instrumental2.aiff", ",", "tonesOnTail_lions.aiff", ",", "tonesOnTail_lionsWbassline.aiff", ",", "tonesOnTail_perf-intro2.aiff", ",", "tonesOnTail_uNight-drBsGtr.aiff", ",", "tonesOnTail_whenUrSmili-dr.aiff" ],
					"maxclass" : "umenu",
					"numinlets" : 1,
					"numoutlets" : 3,
					"outlettype" : [ "int", "", "" ],
					"patching_rect" : [ 73.0, 64.0, 281.0, 28.0 ],
					"prefix" : "atmonic:/Applications/Max5/Cycling '74/Fraktur/loops/bites/",
					"types" : [  ]
				}

			}
, 			{
				"box" : 				{
					"fontname" : "Geneva",
					"fontsize" : 20.0,
					"id" : "obj-13",
					"maxclass" : "newobj",
					"numinlets" : 1,
					"numoutlets" : 1,
					"outlettype" : [ "" ],
					"patching_rect" : [ 204.0, 109.0, 165.0, 33.0 ],
					"text" : "prepend replace"
				}

			}
, 			{
				"box" : 				{
					"id" : "obj-1",
					"maxclass" : "ezdac~",
					"numinlets" : 2,
					"numoutlets" : 0,
					"patching_rect" : [ 413.0, 506.0, 53.0, 53.0 ]
				}

			}
, 			{
				"box" : 				{
					"bgcolor" : [ 0.866667, 0.866667, 0.866667, 1.0 ],
					"fontname" : "Geneva",
					"fontsize" : 20.0,
					"htextcolor" : [ 0.870588, 0.870588, 0.870588, 1.0 ],
					"id" : "obj-3",
					"maxclass" : "flonum",
					"numinlets" : 1,
					"numoutlets" : 2,
					"outlettype" : [ "float", "bang" ],
					"patching_rect" : [ 413.0, 292.0, 80.0, 33.0 ],
					"triscale" : 0.9
				}

			}
, 			{
				"box" : 				{
					"fontname" : "Geneva",
					"fontsize" : 20.0,
					"id" : "obj-4",
					"maxclass" : "newobj",
					"numinlets" : 1,
					"numoutlets" : 8,
					"outlettype" : [ "float", "list", "float", "float", "float", "float", "float", "" ],
					"patching_rect" : [ 327.0, 243.0, 119.0, 33.0 ],
					"text" : "info~ loop1"
				}

			}
, 			{
				"box" : 				{
					"fontname" : "Geneva",
					"fontsize" : 20.0,
					"id" : "obj-5",
					"maxclass" : "message",
					"numinlets" : 2,
					"numoutlets" : 1,
					"outlettype" : [ "" ],
					"patching_rect" : [ 413.0, 341.0, 95.0, 31.0 ],
					"text" : "0, $1 $1"
				}

			}
, 			{
				"box" : 				{
					"fontname" : "Geneva",
					"fontsize" : 20.0,
					"id" : "obj-6",
					"maxclass" : "newobj",
					"numinlets" : 2,
					"numoutlets" : 2,
					"outlettype" : [ "signal", "bang" ],
					"patching_rect" : [ 413.0, 390.0, 54.0, 33.0 ],
					"text" : "line~"
				}

			}
, 			{
				"box" : 				{
					"fontname" : "Geneva",
					"fontsize" : 20.0,
					"id" : "obj-7",
					"maxclass" : "newobj",
					"numinlets" : 1,
					"numoutlets" : 1,
					"outlettype" : [ "signal" ],
					"patching_rect" : [ 413.0, 439.0, 122.0, 33.0 ],
					"text" : "play~ loop1"
				}

			}
, 			{
				"box" : 				{
					"fontname" : "Geneva",
					"fontsize" : 20.0,
					"id" : "obj-10",
					"maxclass" : "newobj",
					"numinlets" : 1,
					"numoutlets" : 2,
					"outlettype" : [ "float", "bang" ],
					"patching_rect" : [ 204.0, 158.0, 142.0, 33.0 ],
					"text" : "buffer~ loop1"
				}

			}
, 			{
				"box" : 				{
					"id" : "obj-11",
					"maxclass" : "button",
					"numinlets" : 1,
					"numoutlets" : 1,
					"outlettype" : [ "bang" ],
					"patching_rect" : [ 327.0, 207.0, 26.0, 26.0 ]
				}

			}
 ],
		"lines" : [ 			{
				"patchline" : 				{
					"destination" : [ "obj-4", 0 ],
					"hidden" : 0,
					"midpoints" : [  ],
					"source" : [ "obj-11", 0 ]
				}

			}
, 			{
				"patchline" : 				{
					"destination" : [ "obj-3", 0 ],
					"hidden" : 0,
					"midpoints" : [  ],
					"source" : [ "obj-4", 6 ]
				}

			}
, 			{
				"patchline" : 				{
					"destination" : [ "obj-5", 0 ],
					"hidden" : 0,
					"midpoints" : [  ],
					"source" : [ "obj-3", 0 ]
				}

			}
, 			{
				"patchline" : 				{
					"destination" : [ "obj-6", 0 ],
					"hidden" : 0,
					"midpoints" : [  ],
					"source" : [ "obj-5", 0 ]
				}

			}
, 			{
				"patchline" : 				{
					"destination" : [ "obj-7", 0 ],
					"hidden" : 0,
					"midpoints" : [  ],
					"source" : [ "obj-6", 0 ]
				}

			}
, 			{
				"patchline" : 				{
					"destination" : [ "obj-1", 0 ],
					"hidden" : 0,
					"midpoints" : [  ],
					"source" : [ "obj-7", 0 ]
				}

			}
, 			{
				"patchline" : 				{
					"destination" : [ "obj-1", 1 ],
					"hidden" : 0,
					"midpoints" : [  ],
					"source" : [ "obj-7", 0 ]
				}

			}
, 			{
				"patchline" : 				{
					"destination" : [ "obj-13", 0 ],
					"hidden" : 0,
					"midpoints" : [  ],
					"source" : [ "obj-14", 1 ]
				}

			}
, 			{
				"patchline" : 				{
					"destination" : [ "obj-10", 0 ],
					"hidden" : 0,
					"midpoints" : [  ],
					"source" : [ "obj-13", 0 ]
				}

			}
, 			{
				"patchline" : 				{
					"destination" : [ "obj-11", 0 ],
					"hidden" : 0,
					"midpoints" : [  ],
					"source" : [ "obj-10", 1 ]
				}

			}
 ]
	}

}
