{
	"patcher" : 	{
		"fileversion" : 1,
		"rect" : [ 69.0, 95.0, 716.0, 672.0 ],
		"bglocked" : 0,
		"defrect" : [ 69.0, 95.0, 716.0, 672.0 ],
		"openrect" : [ 0.0, 0.0, 0.0, 0.0 ],
		"openinpresentation" : 0,
		"default_fontsize" : 11.0,
		"default_fontface" : 0,
		"default_fontname" : "Syntax LT Std Roman",
		"gridonopen" : 0,
		"gridsize" : [ 10.0, 10.0 ],
		"gridsnaponopen" : 0,
		"toolbarvisible" : 1,
		"boxanimatetime" : 200,
		"imprint" : 0,
		"boxes" : [ 			{
				"box" : 				{
					"fontname" : "Geneva",
					"fontsize" : 13.0,
					"id" : "obj-24",
					"maxclass" : "comment",
					"numinlets" : 1,
					"numoutlets" : 0,
					"patching_rect" : [ 577.0, 593.0, 119.0, 24.0 ],
					"presentation_rect" : [ 484.0, 576.0, 0.0, 0.0 ],
					"text" : "max5 added this:"
				}

			}
, 			{
				"box" : 				{
					"fontname" : "Geneva",
					"fontsize" : 18.0,
					"id" : "obj-23",
					"maxclass" : "newobj",
					"numinlets" : 2,
					"numoutlets" : 1,
					"outlettype" : [ "signal" ],
					"patching_rect" : [ 578.0, 623.0, 109.0, 31.0 ],
					"text" : "phasor~ 4n"
				}

			}
, 			{
				"box" : 				{
					"fontname" : "Geneva",
					"fontsize" : 13.0,
					"id" : "obj-19",
					"maxclass" : "comment",
					"numinlets" : 1,
					"numoutlets" : 0,
					"patching_rect" : [ 333.0, 95.0, 335.0, 24.0 ],
					"text" : "buffer is resized dynamically based on size of file"
				}

			}
, 			{
				"box" : 				{
					"autopopulate" : 1,
					"fontname" : "Syntax LT Std Roman",
					"fontsize" : 18.0,
					"id" : "obj-20",
					"items" : [ "aaronCarl_down1-break.aiff", ",", "aaronCarl_down2-break+bass.aiff", ",", "barkPsychosis_01-gtr.aiff", ",", "bauhaus_belasDead1-dr.aiff", ",", "bauhaus_shesInParties_bass.aiff", ",", "bauhaus_shesInPartiesSwell.aiff", ",", "bauhaus_spyIntheCab1-gtr.aiff", ",", "bauhaus_spyIntheCab2-drmMc.aiff", ",", "bauhaus_wasp-quirkySynth.aiff", ",", "blackSabbath_ironMan-d+gtr.aiff", ",", "bsidePlayers04-dr+voxSyll.aiff", ",", "bsidePlayers_01-dr-minimal.aiff", ",", "bsidePlayers_02-afroCubnDr.aiff", ",", "bSidePlayers_05-dr+BrEEEEE.aiff", ",", "cabVoltaire_24-24-claps.aiff", ",", "cabVoltaire_24-24-full.aiff", ",", "cabVoltaire_crackdown1-d+s.aiff", ",", "cabVoltaire_jstFasc-kicks.aiff", ",", "cabVoltaire_jstFasc01-d+sy.aiff", ",", "cabVoltaire_jstFasc02-d+sy.aiff", ",", "cabVoltaire_sensoria1-syn.aiff", ",", "cabVoltaire_sensoria2-mood.aiff", ",", "ceelo_microhard-break.aiff", ",", "certainRatio_blownAway-dr.aiff", ",", "certainRatio_flight-full.aiff", ",", "certainRatio_gum-d+b+vox.aiff", ",", "certainRatio_knfSltsWtr-md.aiff", ",", "certainRatio_saturn.aiff", ",", "certainRatio_theFox1-dr.aiff", ",", "certainRatio_theFox2-dr.aiff", ",", "certainRatio_theFox3-d+b.aiff", ",", "dAngelo_chickenGrease1-d+v.aiff", ",", "dAngelo_feelLikeMknLv1-d.aiff", ",", "dAngelo_feelLikeMknLv3-d+b.aif", ",", "eddieFowlkes_go-drums.aiff", ",", "ericTravis_technoDriver-br.aiff", ",", "iggy_massProduction-syNote.aiff", ",", "iggy_massProduction2-d+sy.aiff", ",", "iggy_nightclubbing-dr.aiff", ",", "joyDiv_asYouSaid-d.aiff", ",", "joyDiv_atmosphere-sy+b.aiff", ",", "joyDiv_atmosphere2-tripletD.aif", ",", "joyDiv_disorder-dr.aiff", ",", "joyDiv_exercise1-d+b+fdbk.aiff", ",", "joyDiv_glass-d+b.aiff", ",", "joyDiv_heartAndSoul-b.aiff", ",", "joyDiv_heartAndSoul-d+b.aiff", ",", "joyDiv_iceAge-dr1.aiff", ",", "joyDiv_iceAge-dr2.aiff", ",", "joyDiv_iceAge-drumStretchd.aiff", ",", "joyDiv_interzoneLive-dr.aiff", ",", "joyDiv_leadersOfMen-d.aiff", ",", "joyDiv_onlyMistake-d.aiff", ",", "joyDiv_shesLostCtl-d+b.aiff", ",", "joyDiv_shesLostCtl-dr.aiff", ",", "joyDiv_shesLostCtl12-d+b.aiff", ",", "joyDiv_shesLostCtl12-d.aiff", ",", "joyDiv_theseDaysLive1-dr.aiff", ",", "joyDiv_transmission-b.aiff", ",", "joyDiv_transmission-bStrtch.aif", ",", "joyDiv_transmission-d+b.aiff", ",", "mikolai01-straightHouse.aiff", ",", "mikolai02-discoeyHouse.aiff", ",", "mikolai03-mnmlTechBassWfilt.aif", ",", "mikolai04-tribalHouse.aiff", ",", "mikolai05-minimalTribal.aiff", ",", "mikolai06-thatZipperTrack1.aiff", ",", "mikolai07-thatZipperTrack2.aiff", ",", "mikolai08-thatZipperTrack3.aiff", ",", "mikolai09-theRealJazz1.aiff", ",", "mikolai10-realJazz2-br8kdwn.aif", ",", "mikolai11-iHaveAdream.aiff", ",", "mikolai12-straightHouse2.aiff", ",", "monsterMovie_ooby-drums.aiff", ",", "monsterMovie_ooby-guitar.aiff", ",", "nangi1-minimalLoTechHouse.aiff", ",", "nangi2-discoeyHouse.aiff", ",", "nangi3-tribalFilterHouse.aiff", ",", "nine_lazy_nine_swell.aiff", ",", "nwa-bringthatbeatback1-vox.aiff", ",", "nwa-bringthatbeatback2-vox.aiff", ",", "nwa_dopeman-break.aiff", ",", "nwa_gngstax2-notAboutSalary.aif", ",", "nwa_ifItAintRough-break.aiff", ",", "nwa_something2dance2-break.aiff", ",", "nwa_something2dance2-break2.aif", ",", "nwa_something2dance2-d+vox.aiff", ",", "nwa_something2dance2-scrtch.aif", ",", "nwa_something2dance2-snares.aif", ",", "nwa_straightOuttaCpt-break.aiff", ",", "pixies_makeBelieve-bassline.aif", ",", "pixies_waveOfMutil-drums.aiff", ",", "pMurphy_fallWithU-quirkyDr.aiff", ",", "pMurphy_subway-synChds+clk.aiff", ",", "prince_whenLightsGoDown-dr.aiff", ",", "ramseyLewis_tamboura-dr1.aiff", ",", "ramseyLewis_tambura-dr2.aiff", ",", "shriekback_accretions-dr+sy.aif", ",", "shriekback_despDensWd-md.aiff", ",", "shriekback_handOnMyHeart-dr.aif", ",", "shriekback_linedUp-dr+sy.aiff", ",", "shriekback_midnightMaps_dr.aiff", ",", "slowdive_hereShe1-8bar-gtr.aiff", ",", "slowdive_hereShe2-16bar-gt.aiff", ",", "tearsForFears_madWorld-d.aiff", ",", "tomWaits_fawn-soloViolin.aiff", ",", "tomWaits_godsAwayOnBiz-inst.aif", ",", "tomWaits_godsAwayOnBiz-vox.aiff", ",", "tonesOnTail_instrumental2.aiff", ",", "tonesOnTail_lions.aiff", ",", "tonesOnTail_lionsWbassline.aiff", ",", "tonesOnTail_perf-intro2.aiff", ",", "tonesOnTail_uNight-drBsGtr.aiff", ",", "tonesOnTail_whenUrSmili-dr.aiff" ],
					"maxclass" : "umenu",
					"numinlets" : 1,
					"numoutlets" : 3,
					"outlettype" : [ "int", "", "" ],
					"patching_rect" : [ 31.0, 44.0, 281.0, 28.0 ],
					"prefix" : "atmonic:/Applications/Max5/Cycling '74/Fraktur/loops/bites/",
					"types" : [  ]
				}

			}
, 			{
				"box" : 				{
					"fontname" : "Geneva",
					"fontsize" : 20.0,
					"id" : "obj-21",
					"maxclass" : "newobj",
					"numinlets" : 1,
					"numoutlets" : 1,
					"outlettype" : [ "" ],
					"patching_rect" : [ 162.0, 90.0, 165.0, 33.0 ],
					"text" : "prepend replace"
				}

			}
, 			{
				"box" : 				{
					"fontname" : "Geneva",
					"fontsize" : 20.0,
					"id" : "obj-22",
					"maxclass" : "newobj",
					"numinlets" : 1,
					"numoutlets" : 2,
					"outlettype" : [ "float", "bang" ],
					"patching_rect" : [ 162.0, 139.0, 142.0, 33.0 ],
					"text" : "buffer~ loop1"
				}

			}
, 			{
				"box" : 				{
					"fontname" : "Geneva",
					"fontsize" : 13.0,
					"id" : "obj-1",
					"maxclass" : "comment",
					"numinlets" : 1,
					"numoutlets" : 0,
					"patching_rect" : [ 156.0, 460.0, 157.0, 24.0 ],
					"text" : "<- phasor drives wave~"
				}

			}
, 			{
				"box" : 				{
					"fontname" : "Geneva",
					"fontsize" : 13.0,
					"id" : "obj-2",
					"maxclass" : "comment",
					"numinlets" : 1,
					"numoutlets" : 0,
					"patching_rect" : [ 281.0, 525.0, 100.0, 24.0 ],
					"text" : "2 = stereo file"
				}

			}
, 			{
				"box" : 				{
					"fontname" : "Geneva",
					"fontsize" : 13.0,
					"id" : "obj-3",
					"maxclass" : "comment",
					"numinlets" : 1,
					"numoutlets" : 0,
					"patching_rect" : [ 281.0, 512.0, 202.0, 24.0 ],
					"text" : "second 0. = ignore loop points"
				}

			}
, 			{
				"box" : 				{
					"fontname" : "Geneva",
					"fontsize" : 13.0,
					"id" : "obj-4",
					"maxclass" : "comment",
					"numinlets" : 1,
					"numoutlets" : 0,
					"patching_rect" : [ 281.0, 499.0, 190.0, 24.0 ],
					"text" : "first 0. = start at 0. seconds"
				}

			}
, 			{
				"box" : 				{
					"fontname" : "Geneva",
					"fontsize" : 13.0,
					"id" : "obj-5",
					"maxclass" : "comment",
					"numinlets" : 1,
					"numoutlets" : 0,
					"patching_rect" : [ 208.0, 259.0, 117.0, 24.0 ],
					"text" : "<- default is 120"
				}

			}
, 			{
				"box" : 				{
					"fontname" : "Geneva",
					"fontsize" : 13.0,
					"id" : "obj-8",
					"maxclass" : "comment",
					"numinlets" : 1,
					"numoutlets" : 0,
					"patching_rect" : [ 81.0, 370.0, 298.0, 24.0 ],
					"text" : "convert from bpm to useful value for phasor~"
				}

			}
, 			{
				"box" : 				{
					"bgcolor" : [ 0.866667, 0.866667, 0.866667, 1.0 ],
					"fontname" : "Geneva",
					"fontsize" : 18.0,
					"htextcolor" : [ 0.870588, 0.870588, 0.870588, 1.0 ],
					"id" : "obj-10",
					"maxclass" : "flonum",
					"numinlets" : 1,
					"numoutlets" : 2,
					"outlettype" : [ "float", "bang" ],
					"patching_rect" : [ 67.0, 399.0, 94.0, 31.0 ],
					"triscale" : 0.9
				}

			}
, 			{
				"box" : 				{
					"bgcolor" : [ 0.866667, 0.866667, 0.866667, 1.0 ],
					"fontname" : "Geneva",
					"fontsize" : 18.0,
					"htextcolor" : [ 0.870588, 0.870588, 0.870588, 1.0 ],
					"id" : "obj-11",
					"maxclass" : "flonum",
					"numinlets" : 1,
					"numoutlets" : 2,
					"outlettype" : [ "float", "bang" ],
					"patching_rect" : [ 67.0, 294.0, 68.0, 31.0 ],
					"triscale" : 0.9
				}

			}
, 			{
				"box" : 				{
					"fontname" : "Geneva",
					"fontsize" : 18.0,
					"id" : "obj-12",
					"maxclass" : "newobj",
					"numinlets" : 1,
					"numoutlets" : 1,
					"outlettype" : [ "" ],
					"patching_rect" : [ 67.0, 335.0, 210.0, 31.0 ],
					"text" : "expr ($f1/(1*16))/60."
				}

			}
, 			{
				"box" : 				{
					"fontname" : "Geneva",
					"fontsize" : 18.0,
					"id" : "obj-13",
					"maxclass" : "newobj",
					"numinlets" : 2,
					"numoutlets" : 1,
					"outlettype" : [ "signal" ],
					"patching_rect" : [ 67.0, 455.0, 81.0, 31.0 ],
					"text" : "phasor~"
				}

			}
, 			{
				"box" : 				{
					"fontname" : "Geneva",
					"fontsize" : 13.0,
					"id" : "obj-14",
					"maxclass" : "comment",
					"numinlets" : 1,
					"numoutlets" : 0,
					"patching_rect" : [ 137.0, 298.0, 118.0, 24.0 ],
					"text" : "beats per minute"
				}

			}
, 			{
				"box" : 				{
					"fontname" : "Geneva",
					"fontsize" : 18.0,
					"id" : "obj-15",
					"maxclass" : "newobj",
					"numinlets" : 1,
					"numoutlets" : 1,
					"outlettype" : [ "" ],
					"patching_rect" : [ 67.0, 253.0, 135.0, 31.0 ],
					"text" : "loadmess 120"
				}

			}
, 			{
				"box" : 				{
					"fontname" : "Geneva",
					"fontsize" : 20.0,
					"id" : "obj-16",
					"maxclass" : "newobj",
					"numinlets" : 3,
					"numoutlets" : 2,
					"outlettype" : [ "signal", "signal" ],
					"patching_rect" : [ 67.0, 500.0, 206.0, 33.0 ],
					"text" : "wave~ loop1 0. 0. 2"
				}

			}
, 			{
				"box" : 				{
					"fontname" : "Geneva",
					"fontsize" : 20.0,
					"id" : "obj-17",
					"maxclass" : "newobj",
					"numinlets" : 2,
					"numoutlets" : 0,
					"patching_rect" : [ 67.0, 555.0, 206.0, 33.0 ],
					"text" : "dac~"
				}

			}
, 			{
				"box" : 				{
					"id" : "obj-18",
					"maxclass" : "toggle",
					"numinlets" : 1,
					"numoutlets" : 1,
					"outlettype" : [ "int" ],
					"patching_rect" : [ 28.0, 497.0, 33.0, 33.0 ]
				}

			}
 ],
		"lines" : [ 			{
				"patchline" : 				{
					"destination" : [ "obj-21", 0 ],
					"hidden" : 0,
					"midpoints" : [  ],
					"source" : [ "obj-20", 1 ]
				}

			}
, 			{
				"patchline" : 				{
					"destination" : [ "obj-22", 0 ],
					"hidden" : 0,
					"midpoints" : [  ],
					"source" : [ "obj-21", 0 ]
				}

			}
, 			{
				"patchline" : 				{
					"destination" : [ "obj-17", 1 ],
					"hidden" : 0,
					"midpoints" : [  ],
					"source" : [ "obj-16", 1 ]
				}

			}
, 			{
				"patchline" : 				{
					"destination" : [ "obj-17", 0 ],
					"hidden" : 0,
					"midpoints" : [  ],
					"source" : [ "obj-18", 0 ]
				}

			}
, 			{
				"patchline" : 				{
					"destination" : [ "obj-17", 0 ],
					"hidden" : 0,
					"midpoints" : [  ],
					"source" : [ "obj-16", 0 ]
				}

			}
, 			{
				"patchline" : 				{
					"destination" : [ "obj-16", 0 ],
					"hidden" : 0,
					"midpoints" : [  ],
					"source" : [ "obj-13", 0 ]
				}

			}
, 			{
				"patchline" : 				{
					"destination" : [ "obj-13", 0 ],
					"hidden" : 0,
					"midpoints" : [  ],
					"source" : [ "obj-10", 0 ]
				}

			}
, 			{
				"patchline" : 				{
					"destination" : [ "obj-10", 0 ],
					"hidden" : 0,
					"midpoints" : [  ],
					"source" : [ "obj-12", 0 ]
				}

			}
, 			{
				"patchline" : 				{
					"destination" : [ "obj-12", 0 ],
					"hidden" : 0,
					"midpoints" : [  ],
					"source" : [ "obj-11", 0 ]
				}

			}
, 			{
				"patchline" : 				{
					"destination" : [ "obj-11", 0 ],
					"hidden" : 0,
					"midpoints" : [  ],
					"source" : [ "obj-15", 0 ]
				}

			}
 ]
	}

}
