{
	"patcher" : 	{
		"fileversion" : 1,
		"rect" : [ 113.0, 83.0, 673.0, 588.0 ],
		"bglocked" : 0,
		"defrect" : [ 113.0, 83.0, 673.0, 588.0 ],
		"openrect" : [ 0.0, 0.0, 0.0, 0.0 ],
		"openinpresentation" : 0,
		"default_fontsize" : 12.0,
		"default_fontface" : 0,
		"default_fontname" : "Arial",
		"gridonopen" : 0,
		"gridsize" : [ 15.0, 15.0 ],
		"gridsnaponopen" : 0,
		"toolbarvisible" : 1,
		"boxanimatetime" : 200,
		"imprint" : 0,
		"enablehscroll" : 1,
		"enablevscroll" : 1,
		"devicewidth" : 0.0,
		"boxes" : [ 			{
				"box" : 				{
					"maxclass" : "message",
					"text" : "fullscreen $1",
					"outlettype" : [ "" ],
					"id" : "obj-32",
					"fontname" : "Arial",
					"patching_rect" : [ 270.0, 360.0, 79.0, 18.0 ],
					"fontsize" : 12.0,
					"numinlets" : 2,
					"numoutlets" : 1
				}

			}
, 			{
				"box" : 				{
					"maxclass" : "toggle",
					"outlettype" : [ "int" ],
					"id" : "obj-30",
					"patching_rect" : [ 270.0, 330.0, 20.0, 20.0 ],
					"numinlets" : 1,
					"numoutlets" : 1
				}

			}
, 			{
				"box" : 				{
					"maxclass" : "newobj",
					"text" : "sel 27",
					"outlettype" : [ "bang", "" ],
					"id" : "obj-28",
					"fontname" : "Arial",
					"patching_rect" : [ 270.0, 300.0, 43.0, 20.0 ],
					"fontsize" : 12.0,
					"numinlets" : 2,
					"numoutlets" : 2
				}

			}
, 			{
				"box" : 				{
					"maxclass" : "newobj",
					"text" : "key",
					"outlettype" : [ "int", "int", "int", "int" ],
					"id" : "obj-25",
					"fontname" : "Arial",
					"patching_rect" : [ 270.0, 270.0, 59.5, 20.0 ],
					"fontsize" : 12.0,
					"numinlets" : 0,
					"numoutlets" : 4
				}

			}
, 			{
				"box" : 				{
					"maxclass" : "newobj",
					"text" : "- 0.1",
					"outlettype" : [ "float" ],
					"id" : "obj-24",
					"fontname" : "Arial",
					"patching_rect" : [ 465.0, 225.0, 35.0, 20.0 ],
					"fontsize" : 12.0,
					"numinlets" : 2,
					"numoutlets" : 1
				}

			}
, 			{
				"box" : 				{
					"maxclass" : "flonum",
					"outlettype" : [ "float", "bang" ],
					"id" : "obj-23",
					"fontname" : "Arial",
					"patching_rect" : [ 465.0, 195.0, 50.0, 20.0 ],
					"fontsize" : 12.0,
					"numinlets" : 1,
					"numoutlets" : 2
				}

			}
, 			{
				"box" : 				{
					"maxclass" : "newobj",
					"text" : "qlim 33",
					"outlettype" : [ "" ],
					"id" : "obj-21",
					"fontname" : "Arial",
					"patching_rect" : [ 525.0, 120.0, 49.0, 20.0 ],
					"fontsize" : 12.0,
					"numinlets" : 2,
					"numoutlets" : 1
				}

			}
, 			{
				"box" : 				{
					"maxclass" : "newobj",
					"text" : "r timing",
					"outlettype" : [ "" ],
					"id" : "obj-20",
					"fontname" : "Arial",
					"patching_rect" : [ 525.0, 75.0, 50.0, 20.0 ],
					"fontsize" : 12.0,
					"numinlets" : 0,
					"numoutlets" : 1
				}

			}
, 			{
				"box" : 				{
					"maxclass" : "newobj",
					"text" : "peakamp~",
					"outlettype" : [ "float" ],
					"id" : "obj-19",
					"fontname" : "Arial",
					"patching_rect" : [ 465.0, 165.0, 67.0, 20.0 ],
					"fontsize" : 12.0,
					"numinlets" : 2,
					"numoutlets" : 1
				}

			}
, 			{
				"box" : 				{
					"maxclass" : "jit.fpsgui",
					"outlettype" : [ "", "" ],
					"id" : "obj-18",
					"fontname" : "Arial",
					"patching_rect" : [ 150.0, 450.0, 80.0, 36.0 ],
					"fontsize" : 12.0,
					"numinlets" : 1,
					"numoutlets" : 2
				}

			}
, 			{
				"box" : 				{
					"maxclass" : "newobj",
					"text" : "s timing",
					"id" : "obj-17",
					"fontname" : "Arial",
					"patching_rect" : [ 135.0, 75.0, 52.0, 20.0 ],
					"fontsize" : 12.0,
					"numinlets" : 1,
					"numoutlets" : 0
				}

			}
, 			{
				"box" : 				{
					"maxclass" : "newobj",
					"text" : "metro 1",
					"outlettype" : [ "bang" ],
					"id" : "obj-16",
					"fontname" : "Arial",
					"patching_rect" : [ 135.0, 45.0, 51.0, 20.0 ],
					"fontsize" : 12.0,
					"numinlets" : 2,
					"numoutlets" : 1
				}

			}
, 			{
				"box" : 				{
					"maxclass" : "toggle",
					"outlettype" : [ "int" ],
					"id" : "obj-15",
					"patching_rect" : [ 135.0, 15.0, 20.0, 20.0 ],
					"numinlets" : 1,
					"numoutlets" : 1
				}

			}
, 			{
				"box" : 				{
					"maxclass" : "toggle",
					"outlettype" : [ "int" ],
					"id" : "obj-13",
					"patching_rect" : [ 465.0, 60.0, 20.0, 20.0 ],
					"numinlets" : 1,
					"numoutlets" : 1
				}

			}
, 			{
				"box" : 				{
					"maxclass" : "newobj",
					"text" : "adc~",
					"outlettype" : [ "signal", "signal" ],
					"id" : "obj-11",
					"fontname" : "Arial",
					"patching_rect" : [ 465.0, 105.0, 37.0, 20.0 ],
					"fontsize" : 12.0,
					"numinlets" : 1,
					"numoutlets" : 2
				}

			}
, 			{
				"box" : 				{
					"maxclass" : "flonum",
					"outlettype" : [ "float", "bang" ],
					"id" : "obj-10",
					"fontname" : "Arial",
					"patching_rect" : [ 150.0, 255.0, 50.0, 20.0 ],
					"fontsize" : 12.0,
					"numinlets" : 1,
					"numoutlets" : 2
				}

			}
, 			{
				"box" : 				{
					"maxclass" : "message",
					"text" : "xfade $1",
					"outlettype" : [ "" ],
					"id" : "obj-8",
					"fontname" : "Arial",
					"patching_rect" : [ 135.0, 285.0, 57.0, 18.0 ],
					"fontsize" : 12.0,
					"numinlets" : 2,
					"numoutlets" : 1
				}

			}
, 			{
				"box" : 				{
					"maxclass" : "newobj",
					"text" : "jit.xfade",
					"outlettype" : [ "jit_matrix", "" ],
					"id" : "obj-6",
					"fontname" : "Arial",
					"patching_rect" : [ 150.0, 330.0, 52.0, 20.0 ],
					"fontsize" : 12.0,
					"numinlets" : 2,
					"numoutlets" : 2
				}

			}
, 			{
				"box" : 				{
					"maxclass" : "bpatcher",
					"outlettype" : [ "jit_matrix" ],
					"id" : "obj-5",
					"patching_rect" : [ 225.0, 105.0, 186.0, 127.0 ],
					"name" : "jg.source.maxpat",
					"numinlets" : 1,
					"args" : [  ],
					"numoutlets" : 1
				}

			}
, 			{
				"box" : 				{
					"maxclass" : "newobj",
					"text" : "jit.window @floating 1 @fsmenubar 0",
					"outlettype" : [ "bang", "" ],
					"id" : "obj-4",
					"fontname" : "Arial",
					"patching_rect" : [ 150.0, 420.0, 209.0, 20.0 ],
					"fontsize" : 12.0,
					"numinlets" : 1,
					"numoutlets" : 2
				}

			}
, 			{
				"box" : 				{
					"maxclass" : "bpatcher",
					"outlettype" : [ "jit_matrix" ],
					"id" : "obj-2",
					"patching_rect" : [ 15.0, 105.0, 186.0, 127.0 ],
					"name" : "jg.source.maxpat",
					"numinlets" : 1,
					"args" : [  ],
					"numoutlets" : 1
				}

			}
 ],
		"lines" : [ 			{
				"patchline" : 				{
					"source" : [ "obj-32", 0 ],
					"destination" : [ "obj-4", 0 ],
					"hidden" : 0,
					"midpoints" : [  ]
				}

			}
, 			{
				"patchline" : 				{
					"source" : [ "obj-30", 0 ],
					"destination" : [ "obj-32", 0 ],
					"hidden" : 0,
					"midpoints" : [  ]
				}

			}
, 			{
				"patchline" : 				{
					"source" : [ "obj-28", 0 ],
					"destination" : [ "obj-30", 0 ],
					"hidden" : 0,
					"midpoints" : [  ]
				}

			}
, 			{
				"patchline" : 				{
					"source" : [ "obj-25", 0 ],
					"destination" : [ "obj-28", 0 ],
					"hidden" : 0,
					"midpoints" : [  ]
				}

			}
, 			{
				"patchline" : 				{
					"source" : [ "obj-6", 0 ],
					"destination" : [ "obj-4", 0 ],
					"hidden" : 0,
					"midpoints" : [  ]
				}

			}
, 			{
				"patchline" : 				{
					"source" : [ "obj-4", 0 ],
					"destination" : [ "obj-18", 0 ],
					"hidden" : 0,
					"midpoints" : [  ]
				}

			}
, 			{
				"patchline" : 				{
					"source" : [ "obj-24", 0 ],
					"destination" : [ "obj-10", 0 ],
					"hidden" : 0,
					"midpoints" : [  ]
				}

			}
, 			{
				"patchline" : 				{
					"source" : [ "obj-23", 0 ],
					"destination" : [ "obj-24", 0 ],
					"hidden" : 0,
					"midpoints" : [  ]
				}

			}
, 			{
				"patchline" : 				{
					"source" : [ "obj-19", 0 ],
					"destination" : [ "obj-23", 0 ],
					"hidden" : 0,
					"midpoints" : [  ]
				}

			}
, 			{
				"patchline" : 				{
					"source" : [ "obj-21", 0 ],
					"destination" : [ "obj-19", 0 ],
					"hidden" : 0,
					"midpoints" : [  ]
				}

			}
, 			{
				"patchline" : 				{
					"source" : [ "obj-20", 0 ],
					"destination" : [ "obj-21", 0 ],
					"hidden" : 0,
					"midpoints" : [  ]
				}

			}
, 			{
				"patchline" : 				{
					"source" : [ "obj-11", 0 ],
					"destination" : [ "obj-19", 0 ],
					"hidden" : 0,
					"midpoints" : [  ]
				}

			}
, 			{
				"patchline" : 				{
					"source" : [ "obj-16", 0 ],
					"destination" : [ "obj-17", 0 ],
					"hidden" : 0,
					"midpoints" : [  ]
				}

			}
, 			{
				"patchline" : 				{
					"source" : [ "obj-16", 0 ],
					"destination" : [ "obj-5", 0 ],
					"hidden" : 0,
					"midpoints" : [  ]
				}

			}
, 			{
				"patchline" : 				{
					"source" : [ "obj-16", 0 ],
					"destination" : [ "obj-2", 0 ],
					"hidden" : 0,
					"midpoints" : [  ]
				}

			}
, 			{
				"patchline" : 				{
					"source" : [ "obj-5", 0 ],
					"destination" : [ "obj-6", 1 ],
					"hidden" : 0,
					"midpoints" : [  ]
				}

			}
, 			{
				"patchline" : 				{
					"source" : [ "obj-2", 0 ],
					"destination" : [ "obj-6", 0 ],
					"hidden" : 0,
					"midpoints" : [  ]
				}

			}
, 			{
				"patchline" : 				{
					"source" : [ "obj-15", 0 ],
					"destination" : [ "obj-16", 0 ],
					"hidden" : 0,
					"midpoints" : [  ]
				}

			}
, 			{
				"patchline" : 				{
					"source" : [ "obj-13", 0 ],
					"destination" : [ "obj-11", 0 ],
					"hidden" : 0,
					"midpoints" : [  ]
				}

			}
, 			{
				"patchline" : 				{
					"source" : [ "obj-10", 0 ],
					"destination" : [ "obj-8", 0 ],
					"hidden" : 0,
					"midpoints" : [  ]
				}

			}
, 			{
				"patchline" : 				{
					"source" : [ "obj-8", 0 ],
					"destination" : [ "obj-6", 0 ],
					"hidden" : 0,
					"midpoints" : [  ]
				}

			}
 ]
	}

}
