{
	"patcher" : 	{
		"fileversion" : 1,
		"rect" : [ 16.0, 62.0, 1178.0, 600.0 ],
		"bglocked" : 0,
		"defrect" : [ 16.0, 62.0, 1178.0, 600.0 ],
		"openrect" : [ 0.0, 0.0, 0.0, 0.0 ],
		"openinpresentation" : 0,
		"default_fontsize" : 18.0,
		"default_fontface" : 0,
		"default_fontname" : "Arial",
		"gridonopen" : 0,
		"gridsize" : [ 15.0, 15.0 ],
		"gridsnaponopen" : 0,
		"toolbarvisible" : 1,
		"boxanimatetime" : 200,
		"imprint" : 0,
		"enablehscroll" : 1,
		"enablevscroll" : 1,
		"devicewidth" : 0.0,
		"boxes" : [ 			{
				"box" : 				{
					"maxclass" : "message",
					"text" : "clear",
					"numinlets" : 2,
					"patching_rect" : [ 521.0, 77.0, 50.0, 25.0 ],
					"numoutlets" : 1,
					"id" : "obj-21",
					"fontsize" : 18.0,
					"outlettype" : [ "" ],
					"fontname" : "Arial"
				}

			}
, 			{
				"box" : 				{
					"maxclass" : "message",
					"text" : "dstdimstart 0 0, dstdimend 100 100",
					"numinlets" : 2,
					"patching_rect" : [ 780.0, 192.0, 292.0, 25.0 ],
					"numoutlets" : 1,
					"id" : "obj-19",
					"fontsize" : 18.0,
					"outlettype" : [ "" ],
					"presentation_rect" : [ 780.0, 192.0, 0.0, 0.0 ],
					"fontname" : "Arial"
				}

			}
, 			{
				"box" : 				{
					"maxclass" : "message",
					"text" : "srcdimstart 100 100, srcdimend 150 150",
					"numinlets" : 2,
					"patching_rect" : [ 780.0, 146.0, 333.0, 25.0 ],
					"numoutlets" : 1,
					"id" : "obj-18",
					"fontsize" : 18.0,
					"outlettype" : [ "" ],
					"fontname" : "Arial"
				}

			}
, 			{
				"box" : 				{
					"maxclass" : "toggle",
					"numinlets" : 1,
					"patching_rect" : [ 839.0, 35.0, 20.0, 20.0 ],
					"numoutlets" : 1,
					"id" : "obj-15",
					"outlettype" : [ "int" ],
					"presentation_rect" : [ 818.0, 66.0, 0.0, 0.0 ]
				}

			}
, 			{
				"box" : 				{
					"maxclass" : "message",
					"text" : "usedstdim $1",
					"numinlets" : 2,
					"patching_rect" : [ 839.0, 92.0, 118.0, 25.0 ],
					"numoutlets" : 1,
					"id" : "obj-16",
					"fontsize" : 18.0,
					"outlettype" : [ "" ],
					"presentation_rect" : [ 818.0, 123.0, 0.0, 0.0 ],
					"fontname" : "Arial"
				}

			}
, 			{
				"box" : 				{
					"maxclass" : "toggle",
					"numinlets" : 1,
					"patching_rect" : [ 667.0, 34.0, 20.0, 20.0 ],
					"numoutlets" : 1,
					"id" : "obj-14",
					"outlettype" : [ "int" ]
				}

			}
, 			{
				"box" : 				{
					"maxclass" : "message",
					"text" : "usesrcdim $1",
					"numinlets" : 2,
					"patching_rect" : [ 667.0, 91.0, 118.0, 25.0 ],
					"numoutlets" : 1,
					"id" : "obj-12",
					"fontsize" : 18.0,
					"outlettype" : [ "" ],
					"fontname" : "Arial"
				}

			}
, 			{
				"box" : 				{
					"maxclass" : "jit.fpsgui",
					"numinlets" : 1,
					"patching_rect" : [ 582.0, 521.0, 146.0, 43.0 ],
					"numoutlets" : 2,
					"id" : "obj-9",
					"fontsize" : 18.0,
					"outlettype" : [ "", "" ],
					"mode" : 5,
					"presentation_rect" : [ 568.0, 438.0, 0.0, 0.0 ],
					"fontname" : "Arial"
				}

			}
, 			{
				"box" : 				{
					"maxclass" : "jit.pwindow",
					"numinlets" : 1,
					"patching_rect" : [ 585.0, 258.0, 320.0, 240.0 ],
					"numoutlets" : 2,
					"id" : "obj-10",
					"outlettype" : [ "", "" ],
					"presentation_rect" : [ 571.0, 175.0, 320.0, 240.0 ]
				}

			}
, 			{
				"box" : 				{
					"maxclass" : "newobj",
					"text" : "jit.matrix frank",
					"numinlets" : 1,
					"patching_rect" : [ 599.0, 215.0, 124.0, 27.0 ],
					"numoutlets" : 2,
					"id" : "obj-5",
					"fontsize" : 18.0,
					"outlettype" : [ "jit_matrix", "" ],
					"fontname" : "Arial"
				}

			}
, 			{
				"box" : 				{
					"maxclass" : "newobj",
					"text" : "jit.dx.grab",
					"numinlets" : 0,
					"patching_rect" : [ 278.0, 151.0, 89.0, 27.0 ],
					"numoutlets" : 0,
					"id" : "obj-2",
					"fontsize" : 18.0,
					"fontname" : "Arial"
				}

			}
, 			{
				"box" : 				{
					"maxclass" : "jit.fpsgui",
					"numinlets" : 1,
					"patching_rect" : [ 170.0, 447.0, 146.0, 43.0 ],
					"numoutlets" : 2,
					"id" : "obj-8",
					"fontsize" : 18.0,
					"outlettype" : [ "", "" ],
					"mode" : 5,
					"fontname" : "Arial"
				}

			}
, 			{
				"box" : 				{
					"maxclass" : "jit.pwindow",
					"numinlets" : 1,
					"patching_rect" : [ 173.0, 184.0, 320.0, 240.0 ],
					"numoutlets" : 2,
					"id" : "obj-7",
					"outlettype" : [ "", "" ],
					"presentation_rect" : [ 0.0, 0.0, 320.0, 240.0 ]
				}

			}
, 			{
				"box" : 				{
					"maxclass" : "toggle",
					"numinlets" : 1,
					"patching_rect" : [ 75.0, 36.0, 20.0, 20.0 ],
					"numoutlets" : 1,
					"id" : "obj-6",
					"outlettype" : [ "int" ]
				}

			}
, 			{
				"box" : 				{
					"maxclass" : "newobj",
					"text" : "metro 2",
					"numinlets" : 2,
					"patching_rect" : [ 71.0, 83.0, 72.0, 27.0 ],
					"numoutlets" : 1,
					"id" : "obj-4",
					"fontsize" : 18.0,
					"outlettype" : [ "bang" ],
					"fontname" : "Arial"
				}

			}
, 			{
				"box" : 				{
					"maxclass" : "message",
					"text" : "open",
					"numinlets" : 2,
					"patching_rect" : [ 254.0, 88.0, 52.0, 25.0 ],
					"numoutlets" : 1,
					"id" : "obj-3",
					"fontsize" : 18.0,
					"outlettype" : [ "" ],
					"fontname" : "Arial"
				}

			}
, 			{
				"box" : 				{
					"maxclass" : "newobj",
					"text" : "jit.qt.grab",
					"numinlets" : 1,
					"patching_rect" : [ 171.0, 144.0, 85.0, 27.0 ],
					"numoutlets" : 2,
					"id" : "obj-1",
					"fontsize" : 18.0,
					"outlettype" : [ "jit_matrix", "" ],
					"fontname" : "Arial"
				}

			}
 ],
		"lines" : [ 			{
				"patchline" : 				{
					"source" : [ "obj-21", 0 ],
					"destination" : [ "obj-5", 0 ],
					"hidden" : 0,
					"midpoints" : [  ]
				}

			}
, 			{
				"patchline" : 				{
					"source" : [ "obj-5", 0 ],
					"destination" : [ "obj-10", 0 ],
					"hidden" : 0,
					"midpoints" : [ 608.5, 249.5, 594.5, 249.5 ]
				}

			}
, 			{
				"patchline" : 				{
					"source" : [ "obj-7", 0 ],
					"destination" : [ "obj-5", 0 ],
					"hidden" : 0,
					"midpoints" : [ 182.5, 426.0, 526.0, 426.0, 526.0, 129.0, 608.5, 129.0 ]
				}

			}
, 			{
				"patchline" : 				{
					"source" : [ "obj-12", 0 ],
					"destination" : [ "obj-5", 0 ],
					"hidden" : 0,
					"midpoints" : [  ]
				}

			}
, 			{
				"patchline" : 				{
					"source" : [ "obj-16", 0 ],
					"destination" : [ "obj-5", 0 ],
					"hidden" : 0,
					"midpoints" : [  ]
				}

			}
, 			{
				"patchline" : 				{
					"source" : [ "obj-18", 0 ],
					"destination" : [ "obj-5", 0 ],
					"hidden" : 0,
					"midpoints" : [  ]
				}

			}
, 			{
				"patchline" : 				{
					"source" : [ "obj-19", 0 ],
					"destination" : [ "obj-5", 0 ],
					"hidden" : 0,
					"midpoints" : [  ]
				}

			}
, 			{
				"patchline" : 				{
					"source" : [ "obj-15", 0 ],
					"destination" : [ "obj-16", 0 ],
					"hidden" : 0,
					"midpoints" : [  ]
				}

			}
, 			{
				"patchline" : 				{
					"source" : [ "obj-14", 0 ],
					"destination" : [ "obj-12", 0 ],
					"hidden" : 0,
					"midpoints" : [  ]
				}

			}
, 			{
				"patchline" : 				{
					"source" : [ "obj-10", 0 ],
					"destination" : [ "obj-9", 0 ],
					"hidden" : 0,
					"midpoints" : [  ]
				}

			}
, 			{
				"patchline" : 				{
					"source" : [ "obj-4", 0 ],
					"destination" : [ "obj-1", 0 ],
					"hidden" : 0,
					"midpoints" : [  ]
				}

			}
, 			{
				"patchline" : 				{
					"source" : [ "obj-3", 0 ],
					"destination" : [ "obj-1", 0 ],
					"hidden" : 0,
					"midpoints" : [  ]
				}

			}
, 			{
				"patchline" : 				{
					"source" : [ "obj-1", 0 ],
					"destination" : [ "obj-7", 0 ],
					"hidden" : 0,
					"midpoints" : [  ]
				}

			}
, 			{
				"patchline" : 				{
					"source" : [ "obj-6", 0 ],
					"destination" : [ "obj-4", 0 ],
					"hidden" : 0,
					"midpoints" : [  ]
				}

			}
, 			{
				"patchline" : 				{
					"source" : [ "obj-7", 0 ],
					"destination" : [ "obj-8", 0 ],
					"hidden" : 0,
					"midpoints" : [  ]
				}

			}
 ]
	}

}
