{
	"patcher" : 	{
		"fileversion" : 1,
		"rect" : [ 16.0, 62.0, 1178.0, 600.0 ],
		"bglocked" : 0,
		"defrect" : [ 16.0, 62.0, 1178.0, 600.0 ],
		"openrect" : [ 0.0, 0.0, 0.0, 0.0 ],
		"openinpresentation" : 0,
		"default_fontsize" : 18.0,
		"default_fontface" : 0,
		"default_fontname" : "Arial",
		"gridonopen" : 0,
		"gridsize" : [ 15.0, 15.0 ],
		"gridsnaponopen" : 0,
		"toolbarvisible" : 1,
		"boxanimatetime" : 200,
		"imprint" : 0,
		"enablehscroll" : 1,
		"enablevscroll" : 1,
		"devicewidth" : 0.0,
		"boxes" : [ 			{
				"box" : 				{
					"maxclass" : "message",
					"text" : "clear",
					"numinlets" : 2,
					"patching_rect" : [ 662.0, 189.0, 50.0, 25.0 ],
					"numoutlets" : 1,
					"id" : "obj-31",
					"fontsize" : 18.0,
					"outlettype" : [ "" ],
					"fontname" : "Arial"
				}

			}
, 			{
				"box" : 				{
					"maxclass" : "newobj",
					"text" : "jit.matrix frank @usedstdim 1 @dstdimstart 100 100 @dstdimend 319 239",
					"linecount" : 3,
					"numinlets" : 1,
					"patching_rect" : [ 583.0, 250.0, 248.0, 69.0 ],
					"numoutlets" : 2,
					"id" : "obj-28",
					"fontsize" : 18.0,
					"outlettype" : [ "jit_matrix", "" ],
					"fontname" : "Arial"
				}

			}
, 			{
				"box" : 				{
					"maxclass" : "jit.pwindow",
					"numinlets" : 1,
					"patching_rect" : [ 581.0, 336.0, 320.0, 240.0 ],
					"numoutlets" : 2,
					"id" : "obj-29",
					"outlettype" : [ "", "" ],
					"presentation_rect" : [ 531.0, 369.0, 320.0, 240.0 ]
				}

			}
, 			{
				"box" : 				{
					"maxclass" : "newobj",
					"text" : "jit.matrix frank @usedstdim 1 @dstdimstart 0 0 @dstdimend 200 200",
					"linecount" : 3,
					"numinlets" : 1,
					"patching_rect" : [ 163.0, 259.0, 244.0, 69.0 ],
					"numoutlets" : 2,
					"id" : "obj-27",
					"fontsize" : 18.0,
					"outlettype" : [ "jit_matrix", "" ],
					"fontname" : "Arial"
				}

			}
, 			{
				"box" : 				{
					"maxclass" : "jit.pwindow",
					"numinlets" : 1,
					"patching_rect" : [ 160.0, 342.0, 320.0, 240.0 ],
					"numoutlets" : 2,
					"id" : "obj-26",
					"outlettype" : [ "", "" ],
					"presentation_rect" : [ 892.0, 173.0, 320.0, 240.0 ]
				}

			}
, 			{
				"box" : 				{
					"maxclass" : "jit.pwindow",
					"numinlets" : 1,
					"patching_rect" : [ 514.0, 181.0, 80.0, 60.0 ],
					"numoutlets" : 2,
					"id" : "obj-23",
					"outlettype" : [ "", "" ],
					"presentation_rect" : [ 514.0, 181.0, 80.0, 60.0 ]
				}

			}
, 			{
				"box" : 				{
					"maxclass" : "message",
					"text" : "read",
					"numinlets" : 2,
					"patching_rect" : [ 595.0, 85.0, 52.0, 25.0 ],
					"numoutlets" : 1,
					"id" : "obj-24",
					"fontsize" : 18.0,
					"outlettype" : [ "" ],
					"presentation_rect" : [ 595.0, 85.0, 0.0, 0.0 ],
					"fontname" : "Arial"
				}

			}
, 			{
				"box" : 				{
					"maxclass" : "newobj",
					"text" : "jit.qt.movie",
					"numinlets" : 1,
					"patching_rect" : [ 512.0, 141.0, 97.0, 27.0 ],
					"numoutlets" : 2,
					"id" : "obj-25",
					"fontsize" : 18.0,
					"outlettype" : [ "jit_matrix", "" ],
					"presentation_rect" : [ 512.0, 141.0, 0.0, 0.0 ],
					"fontname" : "Arial"
				}

			}
, 			{
				"box" : 				{
					"maxclass" : "jit.pwindow",
					"numinlets" : 1,
					"patching_rect" : [ 173.0, 184.0, 80.0, 60.0 ],
					"numoutlets" : 2,
					"id" : "obj-7",
					"outlettype" : [ "", "" ],
					"presentation_rect" : [ 0.0, 0.0, 80.0, 60.0 ]
				}

			}
, 			{
				"box" : 				{
					"maxclass" : "toggle",
					"numinlets" : 1,
					"patching_rect" : [ 75.0, 36.0, 20.0, 20.0 ],
					"numoutlets" : 1,
					"id" : "obj-6",
					"outlettype" : [ "int" ]
				}

			}
, 			{
				"box" : 				{
					"maxclass" : "newobj",
					"text" : "metro 2",
					"numinlets" : 2,
					"patching_rect" : [ 71.0, 83.0, 72.0, 27.0 ],
					"numoutlets" : 1,
					"id" : "obj-4",
					"fontsize" : 18.0,
					"outlettype" : [ "bang" ],
					"fontname" : "Arial"
				}

			}
, 			{
				"box" : 				{
					"maxclass" : "message",
					"text" : "read",
					"numinlets" : 2,
					"patching_rect" : [ 254.0, 88.0, 52.0, 25.0 ],
					"numoutlets" : 1,
					"id" : "obj-3",
					"fontsize" : 18.0,
					"outlettype" : [ "" ],
					"fontname" : "Arial"
				}

			}
, 			{
				"box" : 				{
					"maxclass" : "newobj",
					"text" : "jit.qt.movie",
					"numinlets" : 1,
					"patching_rect" : [ 171.0, 144.0, 97.0, 27.0 ],
					"numoutlets" : 2,
					"id" : "obj-1",
					"fontsize" : 18.0,
					"outlettype" : [ "jit_matrix", "" ],
					"fontname" : "Arial"
				}

			}
 ],
		"lines" : [ 			{
				"patchline" : 				{
					"source" : [ "obj-31", 0 ],
					"destination" : [ "obj-28", 0 ],
					"hidden" : 0,
					"midpoints" : [  ]
				}

			}
, 			{
				"patchline" : 				{
					"source" : [ "obj-23", 0 ],
					"destination" : [ "obj-28", 0 ],
					"hidden" : 0,
					"midpoints" : [  ]
				}

			}
, 			{
				"patchline" : 				{
					"source" : [ "obj-28", 0 ],
					"destination" : [ "obj-29", 0 ],
					"hidden" : 0,
					"midpoints" : [  ]
				}

			}
, 			{
				"patchline" : 				{
					"source" : [ "obj-27", 0 ],
					"destination" : [ "obj-26", 0 ],
					"hidden" : 0,
					"midpoints" : [  ]
				}

			}
, 			{
				"patchline" : 				{
					"source" : [ "obj-7", 0 ],
					"destination" : [ "obj-27", 0 ],
					"hidden" : 0,
					"midpoints" : [  ]
				}

			}
, 			{
				"patchline" : 				{
					"source" : [ "obj-4", 0 ],
					"destination" : [ "obj-25", 0 ],
					"hidden" : 0,
					"midpoints" : [  ]
				}

			}
, 			{
				"patchline" : 				{
					"source" : [ "obj-24", 0 ],
					"destination" : [ "obj-25", 0 ],
					"hidden" : 0,
					"midpoints" : [  ]
				}

			}
, 			{
				"patchline" : 				{
					"source" : [ "obj-25", 0 ],
					"destination" : [ "obj-23", 0 ],
					"hidden" : 0,
					"midpoints" : [  ]
				}

			}
, 			{
				"patchline" : 				{
					"source" : [ "obj-1", 0 ],
					"destination" : [ "obj-7", 0 ],
					"hidden" : 0,
					"midpoints" : [  ]
				}

			}
, 			{
				"patchline" : 				{
					"source" : [ "obj-3", 0 ],
					"destination" : [ "obj-1", 0 ],
					"hidden" : 0,
					"midpoints" : [  ]
				}

			}
, 			{
				"patchline" : 				{
					"source" : [ "obj-4", 0 ],
					"destination" : [ "obj-1", 0 ],
					"hidden" : 0,
					"midpoints" : [  ]
				}

			}
, 			{
				"patchline" : 				{
					"source" : [ "obj-6", 0 ],
					"destination" : [ "obj-4", 0 ],
					"hidden" : 0,
					"midpoints" : [  ]
				}

			}
 ]
	}

}
