{
	"patcher" : 	{
		"fileversion" : 1,
		"rect" : [ 25.0, 69.0, 1185.0, 571.0 ],
		"bglocked" : 0,
		"defrect" : [ 25.0, 69.0, 1185.0, 571.0 ],
		"openrect" : [ 0.0, 0.0, 0.0, 0.0 ],
		"openinpresentation" : 0,
		"default_fontsize" : 18.0,
		"default_fontface" : 0,
		"default_fontname" : "Arial",
		"gridonopen" : 0,
		"gridsize" : [ 15.0, 15.0 ],
		"gridsnaponopen" : 0,
		"toolbarvisible" : 1,
		"boxanimatetime" : 200,
		"imprint" : 0,
		"enablehscroll" : 1,
		"enablevscroll" : 1,
		"devicewidth" : 0.0,
		"boxes" : [ 			{
				"box" : 				{
					"maxclass" : "message",
					"text" : "fullscreen $1",
					"numinlets" : 2,
					"patching_rect" : [ -1.0, 457.0, 113.0, 25.0 ],
					"numoutlets" : 1,
					"id" : "obj-27",
					"fontsize" : 18.0,
					"outlettype" : [ "" ],
					"fontname" : "Arial"
				}

			}
, 			{
				"box" : 				{
					"maxclass" : "toggle",
					"numinlets" : 1,
					"patching_rect" : [ -21.0, 419.0, 20.0, 20.0 ],
					"numoutlets" : 1,
					"id" : "obj-51",
					"outlettype" : [ "int" ]
				}

			}
, 			{
				"box" : 				{
					"maxclass" : "newobj",
					"text" : "sel 27",
					"numinlets" : 2,
					"patching_rect" : [ -28.0, 376.0, 59.0, 27.0 ],
					"numoutlets" : 2,
					"id" : "obj-23",
					"fontsize" : 18.0,
					"outlettype" : [ "bang", "" ],
					"fontname" : "Arial"
				}

			}
, 			{
				"box" : 				{
					"maxclass" : "newobj",
					"text" : "key",
					"numinlets" : 0,
					"patching_rect" : [ -24.0, 329.0, 59.5, 27.0 ],
					"numoutlets" : 4,
					"id" : "obj-22",
					"fontsize" : 18.0,
					"outlettype" : [ "int", "int", "int", "int" ],
					"fontname" : "Arial"
				}

			}
, 			{
				"box" : 				{
					"maxclass" : "newobj",
					"text" : "jit.window",
					"numinlets" : 1,
					"patching_rect" : [ 28.0, 526.0, 89.0, 27.0 ],
					"numoutlets" : 2,
					"id" : "obj-21",
					"fontsize" : 18.0,
					"outlettype" : [ "bang", "" ],
					"fontname" : "Arial"
				}

			}
, 			{
				"box" : 				{
					"maxclass" : "jit.pwindow",
					"numinlets" : 1,
					"patching_rect" : [ 632.0, 438.0, 80.0, 60.0 ],
					"numoutlets" : 2,
					"id" : "obj-50",
					"outlettype" : [ "", "" ],
					"presentation_rect" : [ 632.0, 438.0, 0.0, 0.0 ]
				}

			}
, 			{
				"box" : 				{
					"maxclass" : "newobj",
					"text" : "jit.xfade",
					"numinlets" : 2,
					"patching_rect" : [ 633.0, 394.0, 73.0, 27.0 ],
					"numoutlets" : 2,
					"id" : "obj-49",
					"fontsize" : 18.0,
					"outlettype" : [ "jit_matrix", "" ],
					"fontname" : "Arial"
				}

			}
, 			{
				"box" : 				{
					"maxclass" : "jit.pwindow",
					"numinlets" : 1,
					"patching_rect" : [ 887.0, 289.0, 80.0, 60.0 ],
					"numoutlets" : 2,
					"id" : "obj-48",
					"outlettype" : [ "", "" ],
					"presentation_rect" : [ 896.0, 289.0, 0.0, 0.0 ]
				}

			}
, 			{
				"box" : 				{
					"maxclass" : "newobj",
					"text" : "jit.xfade",
					"numinlets" : 2,
					"patching_rect" : [ 893.0, 248.0, 73.0, 27.0 ],
					"numoutlets" : 2,
					"id" : "obj-47",
					"fontsize" : 18.0,
					"outlettype" : [ "jit_matrix", "" ],
					"presentation_rect" : [ 893.0, 248.0, 0.0, 0.0 ],
					"fontname" : "Arial"
				}

			}
, 			{
				"box" : 				{
					"maxclass" : "message",
					"text" : "xfade $1",
					"numinlets" : 2,
					"patching_rect" : [ 516.0, 321.0, 80.0, 25.0 ],
					"numoutlets" : 1,
					"id" : "obj-45",
					"fontsize" : 18.0,
					"outlettype" : [ "" ],
					"presentation_rect" : [ 516.0, 321.0, 0.0, 0.0 ],
					"fontname" : "Arial"
				}

			}
, 			{
				"box" : 				{
					"maxclass" : "flonum",
					"numinlets" : 1,
					"patching_rect" : [ 516.0, 258.0, 98.0, 27.0 ],
					"numoutlets" : 2,
					"id" : "obj-46",
					"fontsize" : 18.0,
					"outlettype" : [ "float", "bang" ],
					"presentation_rect" : [ 516.0, 258.0, 0.0, 0.0 ],
					"fontname" : "Arial"
				}

			}
, 			{
				"box" : 				{
					"maxclass" : "jit.pwindow",
					"numinlets" : 1,
					"patching_rect" : [ 1058.0, 168.0, 80.0, 60.0 ],
					"numoutlets" : 2,
					"id" : "obj-39",
					"outlettype" : [ "", "" ],
					"presentation_rect" : [ 1058.0, 168.0, 0.0, 0.0 ]
				}

			}
, 			{
				"box" : 				{
					"maxclass" : "message",
					"text" : "importmovie",
					"numinlets" : 2,
					"patching_rect" : [ 1051.0, 82.0, 109.0, 25.0 ],
					"numoutlets" : 1,
					"id" : "obj-40",
					"fontsize" : 18.0,
					"outlettype" : [ "" ],
					"presentation_rect" : [ 1051.0, 82.0, 0.0, 0.0 ],
					"fontname" : "Arial"
				}

			}
, 			{
				"box" : 				{
					"maxclass" : "newobj",
					"text" : "jit.matrix",
					"numinlets" : 1,
					"patching_rect" : [ 1057.0, 127.0, 77.0, 27.0 ],
					"numoutlets" : 2,
					"id" : "obj-41",
					"fontsize" : 18.0,
					"outlettype" : [ "jit_matrix", "" ],
					"presentation_rect" : [ 1057.0, 127.0, 0.0, 0.0 ],
					"fontname" : "Arial"
				}

			}
, 			{
				"box" : 				{
					"maxclass" : "jit.pwindow",
					"numinlets" : 1,
					"patching_rect" : [ 910.0, 165.0, 80.0, 60.0 ],
					"numoutlets" : 2,
					"id" : "obj-42",
					"outlettype" : [ "", "" ],
					"presentation_rect" : [ 910.0, 165.0, 0.0, 0.0 ]
				}

			}
, 			{
				"box" : 				{
					"maxclass" : "message",
					"text" : "importmovie",
					"numinlets" : 2,
					"patching_rect" : [ 903.0, 79.0, 109.0, 25.0 ],
					"numoutlets" : 1,
					"id" : "obj-43",
					"fontsize" : 18.0,
					"outlettype" : [ "" ],
					"presentation_rect" : [ 903.0, 79.0, 0.0, 0.0 ],
					"fontname" : "Arial"
				}

			}
, 			{
				"box" : 				{
					"maxclass" : "newobj",
					"text" : "jit.matrix",
					"numinlets" : 1,
					"patching_rect" : [ 909.0, 124.0, 77.0, 27.0 ],
					"numoutlets" : 2,
					"id" : "obj-44",
					"fontsize" : 18.0,
					"outlettype" : [ "jit_matrix", "" ],
					"presentation_rect" : [ 909.0, 124.0, 0.0, 0.0 ],
					"fontname" : "Arial"
				}

			}
, 			{
				"box" : 				{
					"maxclass" : "jit.pwindow",
					"numinlets" : 1,
					"patching_rect" : [ 630.0, 289.0, 80.0, 60.0 ],
					"numoutlets" : 2,
					"id" : "obj-38",
					"outlettype" : [ "", "" ],
					"presentation_rect" : [ 636.0, 288.0, 0.0, 0.0 ]
				}

			}
, 			{
				"box" : 				{
					"maxclass" : "message",
					"text" : "xfade $1",
					"numinlets" : 2,
					"patching_rect" : [ 472.0, 216.0, 80.0, 25.0 ],
					"numoutlets" : 1,
					"id" : "obj-37",
					"fontsize" : 18.0,
					"outlettype" : [ "" ],
					"fontname" : "Arial"
				}

			}
, 			{
				"box" : 				{
					"maxclass" : "flonum",
					"numinlets" : 1,
					"patching_rect" : [ 472.0, 153.0, 98.0, 27.0 ],
					"numoutlets" : 2,
					"id" : "obj-35",
					"fontsize" : 18.0,
					"outlettype" : [ "float", "bang" ],
					"fontname" : "Arial"
				}

			}
, 			{
				"box" : 				{
					"maxclass" : "newobj",
					"text" : "WTFITM",
					"numinlets" : 1,
					"patching_rect" : [ 472.0, 115.0, 80.0, 27.0 ],
					"numoutlets" : 2,
					"id" : "obj-33",
					"fontsize" : 18.0,
					"outlettype" : [ "float", "float" ],
					"fontname" : "Arial"
				}

			}
, 			{
				"box" : 				{
					"maxclass" : "jit.pwindow",
					"numinlets" : 1,
					"patching_rect" : [ 778.0, 165.0, 80.0, 60.0 ],
					"numoutlets" : 2,
					"id" : "obj-30",
					"outlettype" : [ "", "" ],
					"presentation_rect" : [ 710.0, 151.0, 0.0, 0.0 ]
				}

			}
, 			{
				"box" : 				{
					"maxclass" : "message",
					"text" : "importmovie",
					"numinlets" : 2,
					"patching_rect" : [ 771.0, 79.0, 109.0, 25.0 ],
					"numoutlets" : 1,
					"id" : "obj-31",
					"fontsize" : 18.0,
					"outlettype" : [ "" ],
					"presentation_rect" : [ 703.0, 65.0, 0.0, 0.0 ],
					"fontname" : "Arial"
				}

			}
, 			{
				"box" : 				{
					"maxclass" : "newobj",
					"text" : "jit.matrix",
					"numinlets" : 1,
					"patching_rect" : [ 777.0, 124.0, 77.0, 27.0 ],
					"numoutlets" : 2,
					"id" : "obj-32",
					"fontsize" : 18.0,
					"outlettype" : [ "jit_matrix", "" ],
					"presentation_rect" : [ 709.0, 110.0, 0.0, 0.0 ],
					"fontname" : "Arial"
				}

			}
, 			{
				"box" : 				{
					"maxclass" : "newobj",
					"text" : "jit.xfade",
					"numinlets" : 2,
					"patching_rect" : [ 626.0, 252.0, 73.0, 27.0 ],
					"numoutlets" : 2,
					"id" : "obj-29",
					"fontsize" : 18.0,
					"outlettype" : [ "jit_matrix", "" ],
					"fontname" : "Arial"
				}

			}
, 			{
				"box" : 				{
					"maxclass" : "newobj",
					"text" : "p scalethestuff",
					"numinlets" : 1,
					"patching_rect" : [ 619.0, 513.0, 126.0, 27.0 ],
					"numoutlets" : 1,
					"id" : "obj-28",
					"fontsize" : 18.0,
					"outlettype" : [ "jit_matrix" ],
					"fontname" : "Arial",
					"patcher" : 					{
						"fileversion" : 1,
						"rect" : [ 50.0, 94.0, 640.0, 480.0 ],
						"bglocked" : 0,
						"defrect" : [ 50.0, 94.0, 640.0, 480.0 ],
						"openrect" : [ 0.0, 0.0, 0.0, 0.0 ],
						"openinpresentation" : 0,
						"default_fontsize" : 18.0,
						"default_fontface" : 0,
						"default_fontname" : "Arial",
						"gridonopen" : 0,
						"gridsize" : [ 15.0, 15.0 ],
						"gridsnaponopen" : 0,
						"toolbarvisible" : 1,
						"boxanimatetime" : 200,
						"imprint" : 0,
						"enablehscroll" : 1,
						"enablevscroll" : 1,
						"devicewidth" : 0.0,
						"boxes" : [ 							{
								"box" : 								{
									"maxclass" : "newobj",
									"text" : "jit.pack 2",
									"numinlets" : 2,
									"patching_rect" : [ 70.0, 323.0, 236.0, 27.0 ],
									"numoutlets" : 2,
									"id" : "obj-23",
									"fontsize" : 18.0,
									"outlettype" : [ "jit_matrix", "" ],
									"fontname" : "Arial"
								}

							}
, 							{
								"box" : 								{
									"maxclass" : "newobj",
									"text" : "jit.map @map 0 255 0 239",
									"numinlets" : 1,
									"patching_rect" : [ 294.0, 279.0, 222.0, 27.0 ],
									"numoutlets" : 2,
									"id" : "obj-22",
									"fontsize" : 18.0,
									"outlettype" : [ "jit_matrix", "" ],
									"fontname" : "Arial"
								}

							}
, 							{
								"box" : 								{
									"maxclass" : "newobj",
									"text" : "jit.map @map 0 255 0 319",
									"numinlets" : 1,
									"patching_rect" : [ 64.0, 280.0, 222.0, 27.0 ],
									"numoutlets" : 2,
									"id" : "obj-21",
									"fontsize" : 18.0,
									"outlettype" : [ "jit_matrix", "" ],
									"fontname" : "Arial"
								}

							}
, 							{
								"box" : 								{
									"maxclass" : "newobj",
									"text" : "jit.matrix 1 long 320 240",
									"numinlets" : 1,
									"patching_rect" : [ 285.0, 229.0, 202.0, 27.0 ],
									"numoutlets" : 2,
									"id" : "obj-20",
									"fontsize" : 18.0,
									"outlettype" : [ "jit_matrix", "" ],
									"fontname" : "Arial"
								}

							}
, 							{
								"box" : 								{
									"maxclass" : "newobj",
									"text" : "jit.matrix 1 long 320 240",
									"numinlets" : 1,
									"patching_rect" : [ 72.0, 230.0, 202.0, 27.0 ],
									"numoutlets" : 2,
									"id" : "obj-19",
									"fontsize" : 18.0,
									"outlettype" : [ "jit_matrix", "" ],
									"fontname" : "Arial"
								}

							}
, 							{
								"box" : 								{
									"maxclass" : "jit.pwindow",
									"numinlets" : 1,
									"patching_rect" : [ 169.0, 152.0, 80.0, 60.0 ],
									"numoutlets" : 2,
									"id" : "obj-17",
									"outlettype" : [ "", "" ]
								}

							}
, 							{
								"box" : 								{
									"maxclass" : "jit.pwindow",
									"numinlets" : 1,
									"patching_rect" : [ 69.0, 152.0, 80.0, 60.0 ],
									"numoutlets" : 2,
									"id" : "obj-16",
									"outlettype" : [ "", "" ]
								}

							}
, 							{
								"box" : 								{
									"maxclass" : "newobj",
									"text" : "jit.unpack 4",
									"numinlets" : 1,
									"patching_rect" : [ 50.0, 100.0, 102.0, 27.0 ],
									"numoutlets" : 5,
									"id" : "obj-14",
									"fontsize" : 18.0,
									"outlettype" : [ "jit_matrix", "jit_matrix", "jit_matrix", "jit_matrix", "" ],
									"fontname" : "Arial"
								}

							}
, 							{
								"box" : 								{
									"maxclass" : "inlet",
									"numinlets" : 0,
									"patching_rect" : [ 50.0, 40.0, 25.0, 25.0 ],
									"numoutlets" : 1,
									"id" : "obj-26",
									"outlettype" : [ "" ],
									"comment" : ""
								}

							}
, 							{
								"box" : 								{
									"maxclass" : "outlet",
									"numinlets" : 1,
									"patching_rect" : [ 70.0, 410.0, 25.0, 25.0 ],
									"numoutlets" : 0,
									"id" : "obj-27",
									"comment" : ""
								}

							}
 ],
						"lines" : [ 							{
								"patchline" : 								{
									"source" : [ "obj-14", 1 ],
									"destination" : [ "obj-16", 0 ],
									"hidden" : 0,
									"midpoints" : [  ]
								}

							}
, 							{
								"patchline" : 								{
									"source" : [ "obj-14", 2 ],
									"destination" : [ "obj-17", 0 ],
									"hidden" : 0,
									"midpoints" : [  ]
								}

							}
, 							{
								"patchline" : 								{
									"source" : [ "obj-16", 0 ],
									"destination" : [ "obj-19", 0 ],
									"hidden" : 0,
									"midpoints" : [  ]
								}

							}
, 							{
								"patchline" : 								{
									"source" : [ "obj-17", 0 ],
									"destination" : [ "obj-20", 0 ],
									"hidden" : 0,
									"midpoints" : [  ]
								}

							}
, 							{
								"patchline" : 								{
									"source" : [ "obj-19", 0 ],
									"destination" : [ "obj-21", 0 ],
									"hidden" : 0,
									"midpoints" : [  ]
								}

							}
, 							{
								"patchline" : 								{
									"source" : [ "obj-20", 0 ],
									"destination" : [ "obj-22", 0 ],
									"hidden" : 0,
									"midpoints" : [  ]
								}

							}
, 							{
								"patchline" : 								{
									"source" : [ "obj-21", 0 ],
									"destination" : [ "obj-23", 0 ],
									"hidden" : 0,
									"midpoints" : [  ]
								}

							}
, 							{
								"patchline" : 								{
									"source" : [ "obj-22", 0 ],
									"destination" : [ "obj-23", 1 ],
									"hidden" : 0,
									"midpoints" : [  ]
								}

							}
, 							{
								"patchline" : 								{
									"source" : [ "obj-26", 0 ],
									"destination" : [ "obj-14", 0 ],
									"hidden" : 0,
									"midpoints" : [  ]
								}

							}
, 							{
								"patchline" : 								{
									"source" : [ "obj-23", 0 ],
									"destination" : [ "obj-27", 0 ],
									"hidden" : 0,
									"midpoints" : [  ]
								}

							}
 ]
					}
,
					"saved_object_attributes" : 					{
						"fontface" : 0,
						"fontsize" : 18.0,
						"globalpatchername" : "",
						"default_fontface" : 0,
						"default_fontname" : "Arial",
						"fontname" : "Arial",
						"default_fontsize" : 18.0
					}

				}

			}
, 			{
				"box" : 				{
					"maxclass" : "newobj",
					"text" : "jit.repos",
					"numinlets" : 2,
					"patching_rect" : [ 130.0, 203.0, 74.0, 27.0 ],
					"numoutlets" : 2,
					"id" : "obj-25",
					"fontsize" : 18.0,
					"outlettype" : [ "jit_matrix", "" ],
					"fontname" : "Arial"
				}

			}
, 			{
				"box" : 				{
					"maxclass" : "jit.pwindow",
					"numinlets" : 1,
					"patching_rect" : [ 630.0, 162.0, 80.0, 60.0 ],
					"numoutlets" : 2,
					"id" : "obj-13",
					"outlettype" : [ "", "" ]
				}

			}
, 			{
				"box" : 				{
					"maxclass" : "message",
					"text" : "importmovie",
					"numinlets" : 2,
					"patching_rect" : [ 623.0, 76.0, 109.0, 25.0 ],
					"numoutlets" : 1,
					"id" : "obj-10",
					"fontsize" : 18.0,
					"outlettype" : [ "" ],
					"fontname" : "Arial"
				}

			}
, 			{
				"box" : 				{
					"maxclass" : "newobj",
					"text" : "jit.matrix",
					"numinlets" : 1,
					"patching_rect" : [ 629.0, 121.0, 77.0, 27.0 ],
					"numoutlets" : 2,
					"id" : "obj-8",
					"fontsize" : 18.0,
					"outlettype" : [ "jit_matrix", "" ],
					"fontname" : "Arial"
				}

			}
, 			{
				"box" : 				{
					"maxclass" : "jit.pwindow",
					"numinlets" : 1,
					"patching_rect" : [ 124.0, 258.0, 320.0, 240.0 ],
					"numoutlets" : 2,
					"id" : "obj-7",
					"outlettype" : [ "", "" ],
					"presentation_rect" : [ 0.0, 0.0, 320.0, 240.0 ]
				}

			}
, 			{
				"box" : 				{
					"maxclass" : "toggle",
					"numinlets" : 1,
					"patching_rect" : [ 53.0, -6.0, 20.0, 20.0 ],
					"numoutlets" : 1,
					"id" : "obj-6",
					"outlettype" : [ "int" ]
				}

			}
, 			{
				"box" : 				{
					"maxclass" : "newobj",
					"text" : "metro 2",
					"numinlets" : 2,
					"patching_rect" : [ 49.0, 35.0, 72.0, 27.0 ],
					"numoutlets" : 1,
					"id" : "obj-4",
					"fontsize" : 18.0,
					"outlettype" : [ "bang" ],
					"fontname" : "Arial"
				}

			}
, 			{
				"box" : 				{
					"maxclass" : "message",
					"text" : "read",
					"numinlets" : 2,
					"patching_rect" : [ 153.0, 68.0, 51.0, 25.0 ],
					"numoutlets" : 1,
					"id" : "obj-3",
					"fontsize" : 18.0,
					"outlettype" : [ "" ],
					"fontname" : "Arial"
				}

			}
, 			{
				"box" : 				{
					"maxclass" : "newobj",
					"text" : "jit.qt.movie",
					"numinlets" : 1,
					"patching_rect" : [ 121.0, 108.0, 97.0, 27.0 ],
					"numoutlets" : 2,
					"id" : "obj-1",
					"fontsize" : 18.0,
					"outlettype" : [ "jit_matrix", "" ],
					"fontname" : "Arial"
				}

			}
 ],
		"lines" : [ 			{
				"patchline" : 				{
					"source" : [ "obj-7", 0 ],
					"destination" : [ "obj-21", 0 ],
					"hidden" : 0,
					"midpoints" : [  ]
				}

			}
, 			{
				"patchline" : 				{
					"source" : [ "obj-27", 0 ],
					"destination" : [ "obj-21", 0 ],
					"hidden" : 0,
					"midpoints" : [  ]
				}

			}
, 			{
				"patchline" : 				{
					"source" : [ "obj-51", 0 ],
					"destination" : [ "obj-27", 0 ],
					"hidden" : 0,
					"midpoints" : [  ]
				}

			}
, 			{
				"patchline" : 				{
					"source" : [ "obj-23", 0 ],
					"destination" : [ "obj-51", 0 ],
					"hidden" : 0,
					"midpoints" : [  ]
				}

			}
, 			{
				"patchline" : 				{
					"source" : [ "obj-22", 0 ],
					"destination" : [ "obj-23", 0 ],
					"hidden" : 0,
					"midpoints" : [  ]
				}

			}
, 			{
				"patchline" : 				{
					"source" : [ "obj-3", 0 ],
					"destination" : [ "obj-1", 0 ],
					"hidden" : 0,
					"midpoints" : [  ]
				}

			}
, 			{
				"patchline" : 				{
					"source" : [ "obj-4", 0 ],
					"destination" : [ "obj-1", 0 ],
					"hidden" : 0,
					"midpoints" : [  ]
				}

			}
, 			{
				"patchline" : 				{
					"source" : [ "obj-1", 0 ],
					"destination" : [ "obj-25", 0 ],
					"hidden" : 0,
					"midpoints" : [  ]
				}

			}
, 			{
				"patchline" : 				{
					"source" : [ "obj-50", 0 ],
					"destination" : [ "obj-28", 0 ],
					"hidden" : 0,
					"midpoints" : [  ]
				}

			}
, 			{
				"patchline" : 				{
					"source" : [ "obj-49", 0 ],
					"destination" : [ "obj-50", 0 ],
					"hidden" : 0,
					"midpoints" : [  ]
				}

			}
, 			{
				"patchline" : 				{
					"source" : [ "obj-45", 0 ],
					"destination" : [ "obj-49", 0 ],
					"hidden" : 0,
					"midpoints" : [  ]
				}

			}
, 			{
				"patchline" : 				{
					"source" : [ "obj-48", 0 ],
					"destination" : [ "obj-49", 1 ],
					"hidden" : 0,
					"midpoints" : [  ]
				}

			}
, 			{
				"patchline" : 				{
					"source" : [ "obj-38", 0 ],
					"destination" : [ "obj-49", 0 ],
					"hidden" : 0,
					"midpoints" : [  ]
				}

			}
, 			{
				"patchline" : 				{
					"source" : [ "obj-47", 0 ],
					"destination" : [ "obj-48", 0 ],
					"hidden" : 0,
					"midpoints" : [  ]
				}

			}
, 			{
				"patchline" : 				{
					"source" : [ "obj-37", 0 ],
					"destination" : [ "obj-47", 0 ],
					"hidden" : 0,
					"midpoints" : [  ]
				}

			}
, 			{
				"patchline" : 				{
					"source" : [ "obj-39", 0 ],
					"destination" : [ "obj-47", 1 ],
					"hidden" : 0,
					"midpoints" : [  ]
				}

			}
, 			{
				"patchline" : 				{
					"source" : [ "obj-42", 0 ],
					"destination" : [ "obj-47", 0 ],
					"hidden" : 0,
					"midpoints" : [  ]
				}

			}
, 			{
				"patchline" : 				{
					"source" : [ "obj-33", 1 ],
					"destination" : [ "obj-46", 0 ],
					"hidden" : 0,
					"midpoints" : [  ]
				}

			}
, 			{
				"patchline" : 				{
					"source" : [ "obj-46", 0 ],
					"destination" : [ "obj-45", 0 ],
					"hidden" : 0,
					"midpoints" : [  ]
				}

			}
, 			{
				"patchline" : 				{
					"source" : [ "obj-4", 0 ],
					"destination" : [ "obj-41", 0 ],
					"hidden" : 0,
					"midpoints" : [  ]
				}

			}
, 			{
				"patchline" : 				{
					"source" : [ "obj-4", 0 ],
					"destination" : [ "obj-44", 0 ],
					"hidden" : 0,
					"midpoints" : [  ]
				}

			}
, 			{
				"patchline" : 				{
					"source" : [ "obj-43", 0 ],
					"destination" : [ "obj-44", 0 ],
					"hidden" : 0,
					"midpoints" : [  ]
				}

			}
, 			{
				"patchline" : 				{
					"source" : [ "obj-44", 0 ],
					"destination" : [ "obj-42", 0 ],
					"hidden" : 0,
					"midpoints" : [  ]
				}

			}
, 			{
				"patchline" : 				{
					"source" : [ "obj-41", 0 ],
					"destination" : [ "obj-39", 0 ],
					"hidden" : 0,
					"midpoints" : [  ]
				}

			}
, 			{
				"patchline" : 				{
					"source" : [ "obj-40", 0 ],
					"destination" : [ "obj-41", 0 ],
					"hidden" : 0,
					"midpoints" : [  ]
				}

			}
, 			{
				"patchline" : 				{
					"source" : [ "obj-4", 0 ],
					"destination" : [ "obj-32", 0 ],
					"hidden" : 0,
					"midpoints" : [  ]
				}

			}
, 			{
				"patchline" : 				{
					"source" : [ "obj-29", 0 ],
					"destination" : [ "obj-38", 0 ],
					"hidden" : 0,
					"midpoints" : [  ]
				}

			}
, 			{
				"patchline" : 				{
					"source" : [ "obj-37", 0 ],
					"destination" : [ "obj-29", 0 ],
					"hidden" : 0,
					"midpoints" : [  ]
				}

			}
, 			{
				"patchline" : 				{
					"source" : [ "obj-35", 0 ],
					"destination" : [ "obj-37", 0 ],
					"hidden" : 0,
					"midpoints" : [  ]
				}

			}
, 			{
				"patchline" : 				{
					"source" : [ "obj-33", 0 ],
					"destination" : [ "obj-35", 0 ],
					"hidden" : 0,
					"midpoints" : [  ]
				}

			}
, 			{
				"patchline" : 				{
					"source" : [ "obj-4", 0 ],
					"destination" : [ "obj-33", 0 ],
					"hidden" : 0,
					"midpoints" : [  ]
				}

			}
, 			{
				"patchline" : 				{
					"source" : [ "obj-30", 0 ],
					"destination" : [ "obj-29", 1 ],
					"hidden" : 0,
					"midpoints" : [  ]
				}

			}
, 			{
				"patchline" : 				{
					"source" : [ "obj-31", 0 ],
					"destination" : [ "obj-32", 0 ],
					"hidden" : 0,
					"midpoints" : [  ]
				}

			}
, 			{
				"patchline" : 				{
					"source" : [ "obj-32", 0 ],
					"destination" : [ "obj-30", 0 ],
					"hidden" : 0,
					"midpoints" : [  ]
				}

			}
, 			{
				"patchline" : 				{
					"source" : [ "obj-13", 0 ],
					"destination" : [ "obj-29", 0 ],
					"hidden" : 0,
					"midpoints" : [  ]
				}

			}
, 			{
				"patchline" : 				{
					"source" : [ "obj-28", 0 ],
					"destination" : [ "obj-25", 1 ],
					"hidden" : 0,
					"midpoints" : [ 628.5, 583.0, 456.0, 583.0, 456.0, 198.0, 194.5, 198.0 ]
				}

			}
, 			{
				"patchline" : 				{
					"source" : [ "obj-25", 0 ],
					"destination" : [ "obj-7", 0 ],
					"hidden" : 0,
					"midpoints" : [  ]
				}

			}
, 			{
				"patchline" : 				{
					"source" : [ "obj-8", 0 ],
					"destination" : [ "obj-13", 0 ],
					"hidden" : 0,
					"midpoints" : [  ]
				}

			}
, 			{
				"patchline" : 				{
					"source" : [ "obj-10", 0 ],
					"destination" : [ "obj-8", 0 ],
					"hidden" : 0,
					"midpoints" : [  ]
				}

			}
, 			{
				"patchline" : 				{
					"source" : [ "obj-4", 0 ],
					"destination" : [ "obj-8", 0 ],
					"hidden" : 0,
					"midpoints" : [  ]
				}

			}
, 			{
				"patchline" : 				{
					"source" : [ "obj-6", 0 ],
					"destination" : [ "obj-4", 0 ],
					"hidden" : 0,
					"midpoints" : [  ]
				}

			}
 ]
	}

}
